<?xml version="1.0" standalone="no"?>
<!DOCTYPE svg PUBLIC "-//W3C//DTD SVG 20010904//EN"
 "http://www.w3.org/TR/2001/REC-SVG-20010904/DTD/svg10.dtd">
<svg version="1.0" xmlns="http://www.w3.org/2000/svg"
 width="160" height="100" viewBox="0 0 4000 3334"
 preserveAspectRatio="xMidYMid meet">

<g transform="translate(0.000000,3334.000000) scale(0.100000,-0.100000)"
fill="#000000" stroke="none">
<path d="M35653 25460 c-45 -27 -67 -75 -141 -310 -71 -225 -97 -330 -108
-430 -3 -36 -15 -82 -25 -102 -11 -21 -24 -61 -30 -90 -6 -29 -19 -78 -29
-108 -10 -30 -21 -89 -25 -130 -4 -41 -18 -119 -31 -172 -98 -392 -148 -747
-160 -1133 -9 -264 19 -999 52 -1375 26 -300 42 -369 95 -414 23 -20 29 -33
29 -63 0 -22 7 -48 15 -59 21 -28 18 -53 -7 -63 -71 -27 -117 -30 -208 -16
-68 12 -101 13 -130 5 -26 -7 -53 -7 -82 0 -24 5 -75 10 -113 10 -39 0 -86 5
-105 10 -24 7 -100 7 -240 0 -255 -14 -423 -33 -520 -61 -41 -11 -116 -24
-167 -28 -50 -4 -98 -13 -106 -19 -8 -7 -50 -21 -93 -32 -43 -11 -130 -45
-194 -74 -230 -108 -578 -259 -715 -310 -155 -59 -189 -74 -255 -120 -25 -17
-81 -42 -125 -57 -103 -33 -159 -62 -390 -201 -296 -178 -448 -307 -504 -428
-68 -148 3 -342 152 -415 29 -13 95 -34 147 -45 52 -12 136 -34 185 -51 137
-45 245 -55 419 -40 80 7 158 10 174 6 16 -3 74 3 130 15 55 11 130 20 166 20
37 0 81 6 99 13 18 8 70 20 117 27 47 7 103 19 125 27 22 8 99 25 172 38 73
14 156 33 185 44 29 10 87 26 128 36 41 9 117 35 169 56 52 21 101 39 110 39
9 0 24 7 35 15 10 7 42 17 72 21 35 4 71 18 104 39 30 19 76 37 113 45 34 6
78 20 97 30 19 10 51 21 71 25 21 3 52 16 71 29 19 13 68 33 109 45 40 13 85
31 99 40 14 9 59 34 100 54 41 21 109 65 150 98 41 34 101 74 132 90 31 16 63
37 70 47 17 24 166 142 180 142 5 0 22 13 37 29 15 16 34 30 42 31 33 5 49 -1
49 -19 0 -42 -62 -348 -75 -373 -8 -14 -15 -41 -15 -60 0 -18 -14 -89 -30
-157 -40 -161 -60 -280 -60 -349 0 -40 -8 -70 -30 -116 -24 -49 -32 -83 -41
-171 -6 -60 -17 -122 -25 -137 -8 -14 -14 -42 -14 -62 0 -42 -83 -395 -101
-428 -6 -12 -13 -46 -15 -77 -2 -31 -39 -211 -83 -401 -44 -190 -107 -484
-141 -655 -34 -170 -66 -314 -71 -319 -5 -6 -9 -33 -9 -61 0 -65 -29 -272 -70
-495 -18 -96 -38 -213 -45 -260 -7 -47 -20 -105 -29 -128 -9 -24 -19 -71 -22
-105 -4 -34 -12 -81 -20 -103 -7 -23 -18 -73 -24 -110 -25 -160 -32 -198 -65
-384 -19 -107 -44 -259 -56 -336 l-21 -142 -47 21 c-93 42 -189 21 -283 -63
-54 -47 -95 -123 -138 -255 -18 -55 -39 -111 -46 -125 -38 -68 -75 -235 -91
-405 l-8 -80 -215 -6 c-118 -4 -267 -12 -330 -18 -170 -18 -521 -79 -619 -108
-47 -14 -99 -28 -116 -30 -16 -3 -34 -10 -40 -17 -5 -6 -23 -13 -39 -14 -16
-1 -37 -9 -46 -17 -9 -8 -39 -22 -66 -31 -27 -9 -65 -29 -84 -44 -19 -15 -50
-34 -68 -44 -42 -22 -101 -111 -103 -156 -1 -19 1 -75 5 -125 7 -78 4 -108
-20 -225 -20 -95 -28 -166 -28 -240 -1 -94 2 -111 26 -163 32 -68 104 -141
179 -181 30 -16 76 -49 102 -73 26 -25 76 -58 110 -74 34 -16 78 -38 97 -49
19 -11 43 -20 52 -20 35 0 96 -32 107 -56 6 -14 11 -41 11 -60 0 -66 32 -190
101 -397 58 -169 72 -226 81 -310 5 -56 14 -110 19 -120 14 -25 39 -418 37
-557 -2 -63 1 -154 6 -201 8 -76 6 -93 -13 -150 -20 -55 -22 -76 -16 -151 5
-60 1 -136 -11 -243 -15 -132 -16 -175 -7 -268 8 -76 8 -119 1 -136 -6 -14
-14 -96 -18 -181 -5 -101 -17 -197 -33 -275 -14 -66 -33 -178 -41 -250 -81
-672 -111 -886 -166 -1149 -11 -54 -25 -135 -30 -180 -19 -143 -28 -198 -59
-346 -17 -80 -31 -164 -31 -186 0 -23 -7 -55 -15 -70 -8 -16 -15 -43 -15 -60
0 -17 -7 -51 -15 -74 -8 -23 -15 -62 -15 -85 0 -23 -7 -62 -15 -85 -8 -23 -15
-65 -15 -92 0 -28 -7 -76 -15 -107 -22 -86 -43 -217 -55 -343 -6 -62 -17 -133
-25 -158 -7 -25 -16 -80 -20 -123 -3 -43 -15 -106 -25 -141 -33 -106 -41 -163
-50 -351 -5 -99 -13 -214 -19 -255 -6 -41 -16 -131 -22 -200 -6 -69 -17 -152
-25 -185 -7 -33 -14 -90 -14 -128 0 -44 -7 -88 -21 -125 -41 -110 -58 -207
-74 -406 -9 -111 -18 -220 -20 -243 -2 -23 -8 -51 -14 -62 -13 -23 -14 -80 -3
-98 4 -7 4 -50 0 -96 -4 -46 -13 -223 -19 -393 -5 -170 -12 -336 -15 -369 -19
-246 -17 -289 11 -279 8 4 26 3 40 0 23 -6 25 -11 25 -65 0 -65 26 -117 71
-138 66 -32 438 -59 994 -73 679 -17 691 -18 760 -48 81 -35 195 -40 325 -15
86 16 101 17 151 4 62 -16 45 -20 249 55 74 27 78 27 330 28 l255 2 96 32 c53
17 104 41 114 53 13 14 20 40 23 85 5 72 11 76 75 49 58 -24 109 -20 140 13
53 55 55 71 56 420 1 239 5 343 16 400 19 97 19 132 0 159 -13 19 -12 26 10
75 23 52 24 62 31 373 9 487 13 609 25 870 7 132 13 312 14 400 1 88 7 192 14
230 7 39 12 145 12 240 0 94 2 204 5 245 2 41 6 111 7 155 1 44 6 87 11 95 23
34 33 218 40 725 3 198 8 374 11 390 3 17 -1 42 -10 59 -8 15 -13 32 -10 36 3
5 10 33 16 63 7 42 6 72 -6 128 -10 48 -11 77 -5 83 14 14 13 1824 0 1934 -11
86 -1 223 35 462 9 58 16 141 15 185 -2 57 4 101 20 155 17 59 23 110 27 240
4 126 9 169 20 182 9 10 14 31 12 55 -4 40 44 249 67 295 8 15 14 40 14 56 0
16 15 63 34 104 19 41 56 138 82 214 26 76 55 149 64 161 10 12 23 43 30 68 7
25 17 48 22 51 4 3 57 9 116 14 112 8 213 39 256 79 12 11 71 34 131 51 61 17
138 47 172 66 63 35 83 60 97 119 4 17 14 37 21 45 49 54 117 361 119 532 1
87 -1 99 -22 120 -17 18 -21 32 -16 54 3 16 -4 74 -15 128 -33 156 -28 201 34
285 33 45 32 95 -2 194 -25 71 -30 78 -51 74 -17 -3 -26 1 -32 17 -11 30 -36
49 -109 85 -38 19 -79 31 -102 31 -33 0 -39 3 -39 21 0 18 -5 21 -31 17 -30
-5 -33 -2 -60 56 -16 34 -29 74 -29 91 0 22 -13 43 -55 85 -44 44 -56 65 -64
102 -17 94 -61 131 -158 134 -35 2 -71 8 -78 14 -8 7 -21 36 -30 66 -13 44
-23 59 -54 78 -21 13 -44 31 -52 39 -8 8 -24 17 -34 21 -11 3 -41 26 -66 49
-95 90 -194 127 -335 127 -92 0 -95 -1 -267 -70 -95 -38 -177 -70 -180 -70 -4
0 -7 68 -7 150 0 130 3 156 20 189 21 42 40 140 40 211 0 25 9 86 19 135 11
50 27 164 35 255 9 91 23 190 31 220 16 58 28 119 44 235 6 39 21 117 35 175
14 58 31 152 37 210 8 69 18 114 30 130 13 19 23 75 39 225 30 289 56 459 90
587 17 62 35 165 41 228 5 63 15 133 21 155 5 22 14 78 18 125 10 101 94 711
110 790 11 60 26 274 40 601 9 213 4 304 -21 372 -10 28 -9 42 4 83 13 40 15
83 12 232 -2 101 -9 240 -15 310 -10 106 -15 130 -31 142 -17 14 -18 20 -8 48
14 41 -1 83 -43 116 -26 20 -29 26 -19 45 19 35 57 27 89 -19 15 -21 32 -39
38 -40 35 -1 206 -58 319 -107 231 -99 290 -110 664 -123 146 -6 311 -17 366
-25 139 -22 490 -30 645 -15 69 6 229 15 355 20 159 5 253 13 305 26 41 9 87
16 103 15 69 -4 109 -2 210 13 130 18 121 16 278 81 69 29 154 60 189 69 75
19 183 75 238 122 26 22 71 44 130 63 148 49 270 119 392 225 90 79 103 104
95 186 -4 36 -8 79 -9 95 -2 17 -3 38 -4 47 -3 29 -51 76 -90 89 -20 6 -44 17
-52 25 -9 7 -36 16 -60 19 -25 4 -83 23 -130 42 -65 27 -102 37 -160 40 -85 4
-107 9 -275 65 -84 27 -150 42 -220 49 -55 5 -154 14 -220 20 -67 6 -183 9
-263 5 -112 -4 -158 -2 -210 10 -52 13 -89 14 -162 8 -52 -4 -214 -6 -360 -5
-357 3 -657 -24 -837 -75 -29 -9 -101 -33 -160 -55 -60 -22 -130 -42 -158 -45
-27 -3 -65 -12 -84 -20 -18 -8 -41 -14 -51 -14 -10 0 -23 -6 -29 -14 -6 -7
-31 -16 -56 -19 -53 -8 -115 -38 -165 -80 -38 -31 -160 -86 -196 -86 -11 -1
-43 -12 -70 -26 -58 -29 -109 -41 -118 -27 -3 6 5 50 19 99 37 125 62 288 80
513 8 107 21 215 27 240 13 49 14 71 23 635 4 255 10 398 17 412 8 16 8 29 1
46 -8 16 -8 39 -1 73 15 76 14 324 -5 729 -17 377 -33 553 -63 705 -9 47 -16
105 -15 130 4 137 -49 407 -103 526 -13 29 -35 60 -49 68 -18 12 -26 29 -31
64 -17 126 -71 206 -170 253 -71 34 -119 36 -163 9z m183 -964 c-9 -16 -10
-88 -4 -304 7 -250 10 -287 27 -320 18 -35 20 -64 22 -368 1 -181 6 -336 10
-345 5 -9 11 -228 14 -485 l5 -469 -35 -125 c-40 -143 -48 -277 -20 -348 15
-37 14 -51 -20 -253 -44 -271 -41 -258 -69 -269 -14 -5 -36 -31 -53 -62 -15
-29 -32 -53 -38 -53 -5 0 -20 27 -33 60 -42 110 -57 140 -85 172 -24 27 -27
35 -17 54 15 28 9 131 -18 279 -11 63 -25 159 -31 212 -38 345 -40 1209 -3
1623 12 127 21 260 21 297 0 38 2 72 5 77 12 19 37 161 57 324 17 143 26 182
50 232 16 33 29 73 29 89 0 16 9 48 20 70 10 23 24 79 30 126 15 121 40 199
79 243 15 18 18 3 42 -209 22 -183 25 -232 15 -248z m2354 -3396 c162 -5 408
-15 545 -21 138 -6 304 -12 370 -14 110 -2 133 -6 270 -48 83 -26 199 -53 258
-61 109 -16 156 -31 141 -46 -5 -5 -53 -24 -107 -44 -95 -34 -163 -73 -174
-102 -3 -8 -9 -12 -14 -9 -4 3 -115 -41 -246 -98 -131 -57 -272 -117 -313
-133 -41 -16 -76 -32 -78 -36 -2 -5 -56 -8 -120 -8 -94 0 -138 -5 -223 -27
l-107 -26 -188 13 c-142 9 -199 10 -229 1 -22 -6 -59 -11 -83 -11 -24 0 -91
-16 -150 -36 -136 -46 -211 -51 -422 -30 -91 8 -228 20 -305 26 -420 32 -573
56 -674 109 -42 22 -107 51 -144 65 -92 35 -132 63 -116 83 17 20 71 46 151
72 37 12 77 30 90 40 15 12 50 20 99 25 92 8 177 31 335 89 65 25 155 52 199
62 44 9 157 40 250 67 202 60 292 77 403 78 46 0 93 5 105 12 37 20 80 27 132
23 28 -2 183 -9 345 -15z m-2939 -427 c-32 -60 -240 -240 -341 -296 -18 -9
-34 -25 -37 -35 -2 -9 -78 -68 -169 -129 -124 -85 -173 -113 -196 -113 -45 0
-115 -37 -135 -70 -13 -23 -20 -27 -30 -18 -24 19 -102 1 -196 -45 -51 -25
-135 -59 -187 -76 -290 -90 -363 -115 -454 -160 -153 -73 -333 -123 -751 -207
l-380 -76 -140 5 c-184 6 -456 37 -475 53 -8 7 -28 15 -45 19 -16 4 -42 11
-56 17 l-27 10 44 45 c24 25 44 49 44 53 0 5 9 12 20 15 11 4 45 28 75 54 30
26 72 53 94 60 22 6 55 25 73 41 18 17 38 30 45 30 28 0 142 53 164 76 12 13
28 24 35 24 7 0 26 11 43 26 16 14 200 101 408 195 314 141 385 169 424 169
94 0 488 156 560 221 14 13 41 25 60 27 19 2 57 14 84 27 44 21 55 23 95 14
67 -16 168 -7 216 18 32 16 44 19 53 10 9 -9 74 -11 229 -10 309 4 812 24 837
33 11 5 21 9 23 9 1 1 -2 -7 -7 -16z m351 -630 c12 -16 13 -35 3 -143 -7 -69
-17 -136 -24 -147 -7 -15 -11 -118 -11 -332 l0 -310 26 -20 c25 -20 26 -22 19
-108 -12 -172 -27 -292 -70 -598 -24 -170 -49 -357 -55 -415 -13 -125 -16
-146 -25 -160 -4 -6 -6 -54 -6 -106 1 -80 -3 -103 -24 -155 -19 -43 -28 -87
-31 -148 -3 -47 -12 -103 -20 -124 -8 -20 -14 -52 -14 -70 0 -17 -7 -54 -15
-81 -8 -27 -15 -74 -15 -105 -1 -81 -15 -140 -36 -156 -16 -11 -19 -25 -16
-89 2 -51 -2 -87 -13 -113 -19 -44 -78 -286 -96 -387 -6 -39 -9 -111 -7 -165
l5 -96 -32 -38 c-18 -21 -38 -58 -44 -82 -13 -53 -15 -170 -2 -193 5 -11 4
-42 -5 -82 -7 -36 -12 -71 -9 -78 3 -7 -6 -73 -19 -145 -13 -73 -27 -165 -31
-206 -5 -50 -13 -79 -25 -91 -20 -20 -44 -96 -67 -210 -15 -75 -36 -586 -25
-605 14 -23 0 -308 -18 -393 -31 -144 -41 -277 -28 -378 16 -117 14 -163 -6
-202 -25 -49 -48 -56 -171 -54 -87 2 -127 8 -190 29 -44 14 -81 27 -83 28 -1
1 2 14 7 27 11 30 44 290 46 368 2 79 22 162 63 265 44 112 54 224 28 324 -12
46 -13 67 -6 77 6 7 27 95 47 196 32 160 36 205 39 355 1 94 5 181 8 191 4 11
13 60 21 109 7 48 50 277 95 508 45 231 93 485 106 565 14 80 29 172 35 205 6
33 8 72 5 86 -3 14 2 50 9 80 8 30 15 79 15 110 0 31 8 74 17 95 15 37 27 119
39 293 3 41 12 84 20 96 9 14 14 60 16 148 3 123 4 127 25 127 23 0 33 32 49
148 6 44 13 59 47 91 34 33 40 46 45 89 2 29 -1 64 -7 81 -11 25 -9 33 18 75
39 62 55 134 47 205 -4 31 -8 72 -10 91 -4 27 2 41 24 66 36 41 47 77 59 191
5 50 14 100 20 110 5 10 22 65 37 123 25 95 34 209 26 310 -5 58 34 337 50
356 15 19 33 182 33 299 0 102 2 111 23 128 12 10 22 29 22 41 0 12 3 26 7 30
4 4 8 13 8 19 2 24 17 67 25 67 4 0 14 -8 22 -17z m-872 -3368 c0 -17 -46 -42
-57 -32 -8 9 27 47 44 47 7 0 13 -7 13 -15z m-340 -1735 c-27 -38 -40 -45 -33
-20 5 17 38 50 51 50 2 0 -6 -13 -18 -30z m-470 -1358 c0 -24 -29 -34 -62 -22
-26 9 -54 9 -128 -3 -81 -12 -97 -12 -110 0 -11 10 -12 16 -3 21 18 11 303 15
303 4z m-440 -41 c0 -5 -21 -23 -46 -40 -39 -25 -53 -29 -88 -25 -86 12 -261
-65 -376 -164 -53 -46 -150 -167 -150 -187 0 -14 -119 -120 -157 -140 -59 -31
-140 -13 -240 52 -32 20 -65 42 -74 48 -8 5 -31 20 -50 32 -19 13 -37 24 -40
25 -3 2 -9 33 -11 70 l-6 67 77 50 c42 28 98 60 125 72 47 20 51 21 77 5 27
-16 32 -16 107 8 113 35 210 52 476 81 188 20 353 44 374 54 1 0 2 -3 2 -8z
m3316 -27 c17 -39 11 -85 -12 -104 -20 -17 -64 13 -64 44 0 37 20 84 38 89 9
3 18 5 20 6 2 0 10 -15 18 -35z m-2849 -215 c6 -6 10 -17 7 -23 -2 -6 16 -24
41 -39 25 -16 45 -32 45 -37 0 -24 -34 -97 -61 -131 -61 -77 -86 -72 -134 24
-19 39 -25 66 -25 119 0 66 1 68 28 74 15 3 36 9 47 14 28 12 39 12 52 -1z
m1313 -49 c11 -11 33 -20 49 -20 15 0 40 -9 54 -20 31 -24 48 -25 90 -3 21 11
57 17 103 17 70 1 71 1 122 -45 33 -30 68 -51 99 -59 26 -7 66 -23 88 -36 75
-43 123 -48 207 -25 41 12 89 21 107 21 41 0 83 -24 104 -59 9 -15 48 -43 94
-66 71 -36 85 -40 149 -39 81 2 134 16 159 44 13 15 31 20 67 20 49 0 49 0 69
-45 17 -39 18 -49 7 -73 -19 -41 -150 -101 -388 -178 l-205 -67 -275 -13
c-187 -10 -283 -11 -300 -4 -14 5 -45 10 -70 9 -25 0 -81 7 -125 17 -57 12
-142 18 -292 20 -117 2 -243 8 -280 14 -38 5 -119 10 -182 10 -100 0 -120 3
-165 25 -45 21 -69 25 -195 30 -80 3 -147 7 -149 10 -15 15 0 57 34 92 62 64
94 114 94 145 0 18 5 28 14 28 8 0 96 -16 196 -35 149 -29 204 -35 311 -35
139 0 174 8 236 56 41 31 42 54 3 97 -23 26 -30 44 -30 75 l0 40 39 -5 c35 -5
43 -1 83 36 23 22 46 41 51 41 4 0 16 -9 27 -20z m-1441 -836 c14 0 30 -9 38
-21 14 -21 14 -22 -14 -17 -15 3 -30 9 -31 15 -2 5 -7 7 -11 4 -5 -2 -13 8
-20 23 -9 22 -9 24 1 12 7 -9 24 -16 37 -16z m2951 1 c0 -36 -27 -86 -61 -113
-16 -13 -29 -30 -29 -38 0 -10 -12 -14 -43 -14 -27 0 -62 -10 -93 -25 -27 -14
-69 -33 -94 -42 -25 -8 -58 -24 -73 -35 -38 -27 -127 -37 -288 -31 -106 3
-141 8 -170 23 -44 24 -142 50 -187 50 -18 0 -68 -12 -110 -26 l-77 -27 -460
7 c-479 8 -574 4 -554 -20 9 -11 5 -14 -25 -14 -54 0 -78 15 -70 44 5 20 -3
30 -48 64 -91 67 -99 91 -40 125 32 19 41 19 205 7 95 -7 291 -17 437 -21 325
-11 336 -11 540 -35 124 -14 233 -18 435 -17 261 0 273 1 350 26 44 14 100 28
125 32 25 4 95 26 155 50 143 55 137 53 158 54 12 1 17 -7 17 -24z m-1451
-8597 c1 -45 -12 -56 -33 -26 -21 29 -20 58 1 88 l17 24 7 -24 c4 -14 7 -42 8
-62z m-3031 -1148 c38 -23 40 -53 5 -58 -17 -3 -26 5 -38 34 -8 20 -15 38 -15
40 0 9 17 3 48 -16z m1221 -106 c39 -8 35 -25 -8 -37 -28 -7 -32 -11 -27 -31
8 -31 -7 -36 -76 -29 -39 4 -63 1 -86 -11 -43 -22 -95 -21 -116 3 -17 19 -16
21 45 52 115 58 180 70 268 53z m489 -61 c66 -5 74 -9 87 -32 l13 -27 -80 -18
c-72 -16 -81 -16 -91 -2 -7 8 -29 22 -49 31 -30 12 -38 21 -38 41 0 26 2 26
43 20 23 -3 75 -9 115 -13z m-371 -14 l28 -11 -35 -13 c-43 -16 -80 -18 -100
-5 -13 9 -12 12 4 25 23 18 64 19 103 4z"/>
<path d="M33826 12402 c-3 -5 1 -9 9 -9 8 0 12 4 9 9 -3 4 -7 8 -9 8 -2 0 -6
-4 -9 -8z"/>
<path d="M24545 24744 c-89 -49 -74 -47 -324 -42 -246 6 -277 2 -299 -38 -8
-15 -12 -15 -40 0 -29 15 -41 15 -129 2 -108 -17 -229 -49 -367 -100 -50 -19
-109 -39 -131 -46 -22 -7 -60 -23 -85 -35 -25 -12 -99 -36 -165 -53 -66 -16
-212 -66 -325 -110 -113 -44 -239 -90 -280 -102 -41 -12 -114 -42 -161 -67
-47 -24 -98 -45 -113 -47 -16 -2 -68 -33 -117 -69 -54 -41 -98 -67 -114 -67
-14 0 -25 -6 -25 -12 0 -16 -58 -52 -185 -116 -55 -27 -120 -68 -145 -89 -25
-22 -73 -55 -108 -73 -97 -51 -237 -175 -487 -430 -126 -129 -260 -266 -297
-303 -38 -38 -68 -72 -68 -77 0 -4 -34 -41 -76 -81 -88 -86 -218 -243 -283
-344 -25 -38 -57 -81 -72 -95 -14 -14 -38 -48 -52 -75 -14 -28 -34 -59 -46
-69 -12 -11 -21 -29 -21 -41 0 -12 -11 -32 -25 -45 -28 -26 -114 -148 -137
-195 -9 -16 -19 -46 -23 -65 -4 -19 -20 -54 -36 -78 -42 -62 -65 -110 -79
-162 -6 -25 -36 -101 -65 -170 -64 -150 -114 -306 -148 -455 -14 -60 -34 -132
-46 -158 -11 -26 -25 -74 -30 -106 -5 -32 -21 -82 -36 -111 -15 -29 -33 -80
-40 -114 -8 -33 -19 -79 -24 -101 -28 -118 -73 -397 -95 -595 -47 -421 -49
-447 -42 -557 4 -60 9 -243 11 -408 6 -469 44 -775 131 -1045 13 -41 27 -104
31 -140 7 -75 23 -113 58 -136 19 -13 25 -25 25 -54 0 -21 7 -55 16 -76 9 -21
18 -50 21 -64 2 -13 10 -28 16 -32 9 -5 8 -8 -3 -8 -13 0 -13 -1 0 -10 8 -5
11 -10 6 -10 -5 0 -3 -7 4 -15 7 -8 10 -15 6 -15 -11 0 94 -152 132 -192 l35
-37 -27 -11 c-15 -5 -48 -10 -74 -10 -58 0 -117 -26 -170 -75 -41 -37 -92
-124 -92 -157 0 -9 -13 -24 -29 -32 -15 -8 -35 -26 -45 -40 -29 -45 -80 -384
-78 -516 1 -25 1 -85 0 -135 -2 -116 -1 -220 3 -270 1 -22 -3 -83 -9 -135 -16
-135 13 -399 54 -489 18 -40 24 -71 24 -125 1 -45 8 -91 21 -126 11 -30 28
-93 38 -140 22 -96 40 -145 81 -210 18 -29 38 -89 55 -165 16 -66 32 -137 37
-157 5 -20 20 -50 33 -67 14 -16 37 -54 51 -85 14 -31 29 -58 34 -61 5 -3 30
-45 55 -94 25 -49 58 -97 74 -109 16 -12 55 -64 86 -117 65 -111 100 -154 171
-205 28 -21 95 -80 150 -132 117 -110 164 -148 221 -177 30 -15 45 -30 49 -49
11 -45 44 -82 108 -123 34 -21 70 -47 81 -58 11 -10 31 -22 45 -26 38 -11 83
-49 102 -86 9 -19 34 -77 55 -129 l38 -95 -1 -200 c-2 -310 -39 -576 -125
-890 -22 -82 -43 -167 -45 -188 -2 -21 -15 -78 -29 -125 -45 -159 -71 -322
-90 -562 -7 -80 -94 -491 -184 -860 -42 -176 -114 -532 -181 -905 -23 -126
-77 -369 -120 -540 -43 -170 -86 -359 -95 -420 -9 -60 -39 -200 -67 -310 -51
-209 -88 -401 -88 -464 0 -20 -6 -43 -12 -49 -7 -7 -16 -47 -19 -90 -4 -42
-16 -120 -28 -172 -11 -52 -32 -187 -47 -300 -37 -287 -165 -935 -203 -1025
-50 -118 -81 -243 -88 -345 -4 -75 -12 -113 -39 -180 -39 -101 -114 -392 -120
-470 -3 -30 -12 -77 -21 -103 -11 -36 -13 -68 -9 -120 6 -58 -1 -118 -33 -317
-57 -349 -64 -404 -59 -463 5 -66 34 -106 99 -141 67 -37 134 -43 177 -16 55
34 62 59 106 381 18 137 59 325 186 850 89 371 168 688 175 704 20 48 110 346
154 510 76 287 225 975 251 1160 6 44 20 121 30 171 11 50 24 142 30 205 5 63
15 135 22 161 10 41 9 52 -12 100 -28 65 -30 155 -5 248 10 36 21 98 26 139 5
41 13 79 19 85 5 5 10 36 10 67 0 34 18 127 45 235 25 97 45 197 45 222 0 86
142 818 231 1192 130 542 158 688 159 820 1 25 7 63 15 85 8 22 18 87 21 145
7 115 29 219 75 350 17 47 33 117 36 155 3 39 12 82 19 97 8 15 14 45 14 68 0
22 11 67 25 100 16 38 25 78 25 111 0 35 6 59 17 71 14 16 15 24 5 51 -9 27
-8 43 8 96 28 87 43 240 35 336 -4 44 -7 137 -6 206 1 108 -2 139 -23 205 -13
44 -37 124 -53 179 -33 119 -62 157 -128 174 -28 7 -56 23 -74 44 -131 143
-157 168 -209 195 -31 16 -73 35 -94 41 -24 8 -38 19 -42 35 -4 16 -23 32 -53
47 -39 20 -50 31 -58 61 -8 28 -46 72 -166 190 -122 119 -175 180 -242 278
-98 143 -194 322 -227 425 -29 91 -87 258 -110 315 -10 25 -25 86 -34 135 -8
50 -35 149 -59 220 -43 125 -45 138 -56 315 -7 102 -17 201 -22 220 -9 35 -6
373 6 650 5 109 3 162 -8 213 -15 72 -16 69 27 104 8 7 18 30 22 50 3 21 14
47 24 58 9 11 22 40 29 65 17 59 27 70 66 70 58 0 95 -11 95 -29 0 -10 13 -27
30 -39 40 -30 58 -69 75 -160 48 -255 103 -464 141 -534 8 -15 14 -39 14 -55
-4 -118 1 -153 26 -182 16 -19 24 -41 24 -65 0 -26 31 -97 109 -253 116 -229
217 -395 254 -414 12 -7 51 -18 87 -24 36 -7 86 -18 112 -25 57 -17 89 -6 118
42 27 44 25 88 -4 131 -13 19 -27 46 -31 58 -4 13 -29 57 -56 97 -27 41 -49
83 -49 95 0 12 -7 46 -15 76 -10 40 -12 81 -8 150 7 105 21 131 72 131 24 0
41 -15 107 -97 194 -243 382 -471 418 -507 22 -21 55 -45 75 -53 20 -8 60 -38
91 -66 63 -58 158 -122 195 -131 15 -4 25 -13 25 -25 0 -21 25 -45 38 -37 5 3
85 -58 178 -135 361 -303 403 -349 597 -651 21 -32 42 -58 47 -58 6 0 10 -16
10 -37 0 -23 14 -62 39 -107 61 -113 93 -253 156 -676 11 -76 36 -591 37 -763
0 -100 4 -187 10 -194 5 -7 5 -43 -2 -94 -6 -48 -10 -310 -11 -614 0 -291 -4
-624 -9 -740 -5 -115 -9 -1162 -10 -2325 -1 -1163 -2 -2133 -2 -2155 -3 -99
-1 -139 10 -275 13 -147 9 -269 -19 -535 -13 -117 -13 -128 -8 -345 2 -91 1
-545 -1 -1010 -5 -840 -5 -845 16 -885 42 -81 180 -124 263 -81 50 26 62 67
61 209 -7 684 5 1971 19 2166 13 166 15 678 3 766 -5 41 -4 66 4 80 9 15 10
54 4 145 -4 69 -10 404 -13 745 -5 449 -10 634 -19 670 -12 46 -11 53 11 98
l24 48 -12 242 c-9 200 -9 320 5 697 13 372 14 505 5 730 -6 151 -16 615 -22
1030 -5 415 -14 818 -19 895 -14 221 -13 322 6 349 16 26 14 29 -30 60 -24 17
-15 46 15 46 17 0 19 4 13 18 -12 26 -17 320 -7 378 6 28 6 60 2 72 -5 13 -4
34 2 50 16 39 14 148 -4 214 -11 43 -12 67 -4 101 8 38 6 57 -11 114 -18 60
-33 184 -56 488 -4 53 -43 168 -54 161 -4 -2 -8 17 -10 42 -1 26 -11 65 -22
87 -11 22 -26 60 -35 85 -9 25 -38 82 -65 126 -28 45 -53 95 -56 112 -3 17
-19 43 -35 58 -16 15 -40 58 -55 96 -23 61 -36 78 -125 160 -54 51 -99 100
-99 110 0 25 -29 37 -62 26 -40 -14 -56 -5 -64 37 -7 40 -15 47 -64 55 -29 4
-36 10 -38 32 -4 30 13 68 29 68 6 0 56 -27 111 -60 105 -64 157 -89 198 -96
34 -6 112 -35 128 -47 7 -6 50 -12 95 -15 66 -4 92 -10 133 -33 68 -39 177
-66 299 -74 55 -4 116 -13 135 -21 19 -7 98 -23 175 -34 159 -24 220 -38 355
-82 73 -23 123 -32 220 -38 69 -4 168 -18 220 -29 52 -12 144 -24 205 -27 60
-2 126 -9 145 -15 52 -17 452 -23 583 -10 62 6 204 28 317 47 168 30 284 42
650 68 372 27 446 30 448 18 2 -8 -24 -55 -58 -105 -56 -83 -61 -95 -56 -129
6 -37 6 -38 -20 -26 -28 13 -44 1 -44 -34 0 -9 -42 -142 -94 -295 -51 -153
-97 -303 -101 -333 -5 -30 -8 -198 -9 -373 l-1 -318 -66 -59 c-93 -84 -121
-161 -99 -281 10 -55 9 -71 -6 -116 -17 -48 -17 -59 -3 -130 7 -43 13 -107 11
-143 -4 -108 28 -163 116 -202 l42 -19 2 -97 c4 -200 -3 -336 -20 -385 -13
-38 -14 -54 -5 -80 10 -27 20 -262 13 -292 -3 -14 -7 -255 -14 -868 -4 -411
-3 -553 7 -600 9 -46 10 -128 5 -317 -4 -140 -12 -487 -18 -770 -22 -1039 -29
-1266 -40 -1333 -8 -47 -9 -81 -1 -115 7 -37 6 -57 -6 -94 -13 -42 -13 -55 0
-121 13 -64 13 -82 1 -133 -13 -54 -20 -310 -15 -544 1 -41 -3 -94 -10 -117
-8 -31 -8 -50 0 -73 8 -23 8 -38 0 -52 -6 -12 -7 -24 -2 -29 5 -5 5 -45 0 -95
-8 -68 -6 -104 6 -169 15 -76 15 -85 0 -124 -13 -34 -14 -47 -5 -62 7 -10 12
-24 12 -31 0 -6 7 -19 16 -29 14 -16 14 -20 -1 -43 -16 -24 -16 -33 0 -147 13
-89 14 -124 6 -132 -18 -18 -13 -202 13 -472 35 -353 40 -476 27 -672 -9 -126
-9 -218 -1 -345 16 -248 56 -554 78 -592 22 -39 62 -52 170 -58 77 -4 85 -3
97 16 21 32 37 213 34 371 -4 185 -3 563 2 860 3 187 0 281 -15 425 -16 159
-18 231 -12 520 3 184 11 387 16 450 30 358 32 419 21 544 -6 70 -11 233 -11
364 0 130 -4 316 -9 412 -23 425 -13 942 30 1655 10 166 9 190 -10 308 -12 70
-21 171 -21 225 -1 61 -6 106 -14 121 -9 16 -11 35 -5 59 4 20 4 265 -1 546
-9 496 -6 1017 6 1317 4 86 2 186 -5 240 -9 77 -8 105 4 158 9 36 14 100 13
147 -2 57 2 88 10 96 10 10 50 12 150 10 132 -3 222 9 222 29 0 17 44 9 65
-11 20 -19 27 -19 195 -9 229 15 575 6 598 -14 10 -8 40 -17 67 -20 64 -6 179
-25 230 -38 120 -31 152 -33 247 -15 150 30 194 31 207 8 5 -10 17 -90 26
-178 60 -598 133 -1139 160 -1181 14 -20 20 -58 26 -143 4 -69 18 -154 33
-214 14 -54 26 -125 26 -157 0 -33 9 -91 20 -130 15 -54 17 -76 9 -92 -9 -15
-7 -29 10 -62 18 -36 22 -62 22 -157 1 -62 5 -129 10 -148 4 -19 15 -96 23
-170 9 -74 20 -151 26 -170 11 -37 124 -858 135 -975 11 -136 16 -154 43 -187
26 -31 27 -36 28 -162 1 -101 7 -159 28 -256 15 -69 49 -251 76 -405 27 -154
56 -297 64 -317 23 -54 66 -310 67 -398 0 -41 4 -84 8 -95 5 -11 5 -29 1 -41
-11 -28 100 -682 146 -859 20 -77 40 -171 44 -210 5 -38 24 -115 44 -170 21
-61 47 -169 65 -278 17 -99 42 -211 56 -250 17 -50 36 -154 61 -337 39 -287
47 -313 104 -342 39 -20 159 -25 190 -8 49 26 47 120 -11 435 -19 100 -28 173
-24 196 4 22 2 40 -4 44 -7 4 -11 44 -11 101 0 53 -5 105 -12 117 -6 12 -10
39 -10 60 1 21 -3 48 -9 60 -7 11 -14 59 -16 106 -3 47 -11 103 -20 126 -8 22
-18 63 -23 90 -4 28 -18 75 -30 105 -17 43 -24 88 -30 210 -10 177 -23 253
-86 503 -24 98 -42 182 -39 187 10 17 -16 183 -55 355 -21 94 -55 261 -74 373
-20 111 -49 255 -65 320 -17 64 -37 173 -46 242 -17 131 -37 238 -53 280 -5
14 -12 59 -16 100 -8 103 -38 242 -53 247 -9 4 -9 9 0 24 9 14 6 51 -11 171
-60 404 -102 735 -96 764 4 21 0 40 -10 56 -19 29 -35 142 -36 243 0 39 -6 95
-14 125 -14 55 -44 242 -51 322 -2 24 -24 167 -48 318 -25 151 -48 309 -52
350 -11 124 -42 278 -80 397 -32 101 -36 129 -45 290 -6 98 -17 205 -24 237
-11 45 -12 74 -4 116 7 41 6 69 -3 101 -6 24 -11 71 -10 104 3 79 -15 188 -39
237 -17 35 -18 49 -9 126 5 48 14 107 19 132 11 49 7 362 -8 546 -10 121 -22
150 -76 182 -28 17 -35 28 -46 81 -40 189 38 351 252 523 106 86 178 160 203
209 10 19 64 82 120 140 129 134 204 225 240 290 15 29 36 60 46 70 11 11 19
31 19 45 0 17 12 36 35 57 19 17 35 36 35 43 0 6 7 17 16 25 8 7 42 69 75 138
33 69 72 149 86 176 194 371 240 486 288 714 l26 124 -4 501 c-5 560 -6 577
-78 791 -22 66 -73 189 -114 274 -41 84 -75 165 -75 180 0 99 -66 177 -176
210 -39 11 -78 29 -86 38 -35 40 -32 59 36 196 259 522 446 1583 407 2310 -6
116 -11 262 -11 322 0 122 -18 249 -56 399 -14 55 -23 109 -20 121 3 12 -1 49
-10 81 -32 120 -52 211 -58 269 -8 71 -68 328 -102 437 -14 42 -40 100 -59
129 -25 35 -40 75 -51 128 -36 177 -107 330 -213 464 -53 66 -65 87 -66 118
-1 24 -9 47 -21 61 -12 13 -27 39 -34 58 -20 53 -59 101 -91 112 -24 8 -29 15
-29 44 0 24 -10 45 -33 71 -18 21 -66 82 -106 136 -40 54 -88 109 -107 123
-18 14 -47 50 -63 79 -17 30 -54 73 -86 98 -30 25 -70 65 -88 89 -21 28 -72
68 -144 113 -76 48 -137 97 -194 156 -59 60 -103 95 -148 117 -35 18 -87 53
-115 80 -28 26 -82 65 -121 86 -38 22 -98 61 -131 88 -42 33 -169 100 -400
213 -305 148 -354 168 -488 205 -175 48 -180 50 -226 102 -31 35 -42 41 -95
47 -33 4 -75 15 -94 25 -62 33 -141 55 -300 86 -146 28 -475 117 -771 210
-251 78 -380 99 -605 100 -121 0 -151 4 -218 25 -90 29 -140 31 -182 9z m-170
-232 c44 -1 103 -8 130 -16 59 -19 108 -20 137 -5 31 17 289 42 302 29 5 -5
23 -10 39 -10 41 0 71 -18 58 -34 -9 -10 7 -22 67 -52 49 -25 82 -49 92 -66
14 -25 13 -31 -12 -81 -23 -47 -25 -56 -12 -69 13 -12 8 -26 -35 -109 -156
-296 -194 -699 -97 -1007 46 -147 45 -138 56 -312 6 -85 15 -182 21 -215 7
-33 13 -73 15 -90 1 -16 6 -52 10 -79 l7 -48 -78 -73 c-43 -40 -90 -75 -105
-78 -15 -3 -40 -17 -56 -30 -16 -13 -46 -30 -68 -38 -21 -8 -48 -26 -61 -41
-13 -15 -38 -29 -58 -33 -20 -4 -38 -13 -41 -20 -2 -7 -22 -18 -43 -25 -21 -7
-54 -27 -73 -45 -55 -51 -201 -165 -211 -165 -5 0 -9 -15 -9 -32 0 -18 -9 -48
-21 -67 -106 -174 -152 -476 -130 -856 9 -164 14 -202 30 -224 10 -14 41 -73
69 -131 28 -58 67 -124 86 -147 27 -31 35 -48 31 -65 -5 -19 1 -27 32 -43 21
-11 50 -38 64 -60 23 -34 51 -53 171 -114 79 -41 208 -111 288 -156 80 -45
162 -86 184 -89 27 -5 54 -22 90 -56 65 -61 160 -121 311 -198 66 -34 128 -67
138 -74 9 -7 23 -35 30 -63 12 -49 13 -50 50 -50 31 0 39 -4 43 -22 9 -35 37
-53 97 -63 66 -10 148 -42 317 -123 169 -80 282 -123 387 -147 48 -12 97 -29
108 -40 26 -24 307 -124 405 -143 41 -9 113 -18 160 -22 111 -8 130 -12 130
-30 0 -11 12 -15 49 -15 40 0 59 7 102 37 119 82 229 97 257 35 7 -16 45 -48
90 -77 66 -43 83 -60 120 -122 31 -52 47 -93 58 -150 8 -43 23 -90 34 -105 11
-15 20 -42 20 -59 0 -18 6 -40 14 -48 7 -9 27 -68 44 -131 55 -207 95 -289
207 -420 64 -75 277 -280 292 -280 5 0 31 -23 58 -51 28 -28 62 -56 77 -63 34
-15 148 -124 145 -139 -1 -6 30 -33 70 -59 l72 -48 -87 -135 c-48 -75 -131
-203 -185 -286 -65 -101 -95 -155 -88 -163 9 -12 -25 -67 -244 -393 -66 -98
-151 -230 -189 -293 -59 -101 -74 -119 -114 -140 -42 -22 -50 -33 -75 -94 -39
-99 -74 -141 -227 -272 -74 -64 -140 -125 -146 -135 -5 -11 -55 -40 -109 -64
-54 -25 -160 -78 -234 -119 -204 -111 -237 -126 -275 -126 -21 0 -54 -12 -85
-31 -36 -23 -57 -30 -75 -25 -34 8 -45 31 -56 118 -13 101 -26 141 -51 156
-16 10 -24 11 -35 1 -12 -10 -17 -8 -28 6 -8 11 -20 16 -30 12 -9 -4 -31 2
-48 12 -18 11 -60 27 -93 36 -66 19 -100 44 -120 91 -10 25 -21 33 -50 38 -59
11 -83 26 -100 62 -9 19 -20 34 -25 34 -4 0 -40 29 -78 64 -39 35 -80 67 -93
71 -45 15 -99 55 -99 74 0 22 -97 99 -170 136 -107 54 -307 94 -473 95 -124 0
-162 14 -206 74 -21 28 -60 69 -87 91 -27 21 -53 45 -57 52 -4 7 -28 26 -52
43 -26 18 -45 39 -45 50 0 10 -3 26 -6 35 -9 23 -110 85 -139 85 -19 0 -34 12
-57 45 -21 30 -39 45 -54 45 -12 0 -29 11 -39 26 -18 28 -70 54 -110 54 -14 0
-25 4 -25 8 0 21 -29 44 -65 53 -22 5 -132 13 -245 18 -125 6 -223 15 -250 23
-26 9 -54 11 -65 7 -11 -4 -14 -8 -6 -8 26 -2 -9 -30 -45 -37 -19 -3 -37 -10
-39 -15 -3 -5 -34 -22 -68 -38 -34 -17 -101 -60 -150 -96 -51 -38 -97 -65
-111 -65 -35 0 -129 -95 -151 -153 -14 -36 -16 -61 -11 -114 11 -103 10 -134
-4 -182 -11 -35 -11 -69 -1 -175 17 -188 24 -218 103 -446 50 -145 77 -211 94
-225 13 -12 24 -28 24 -36 0 -9 9 -24 19 -33 11 -10 21 -32 23 -49 2 -22 11
-36 28 -44 14 -7 36 -30 49 -52 14 -22 42 -49 63 -61 51 -29 54 -37 17 -56
-27 -13 -48 -15 -123 -9 -82 6 -99 11 -172 51 l-81 44 -120 0 c-65 0 -123 4
-128 9 -18 18 -205 72 -402 117 -224 50 -265 68 -231 102 8 8 5 13 -13 21
-106 40 -288 115 -312 127 -21 11 -32 13 -40 5 -29 -29 -116 -5 -199 54 -27
20 -73 46 -102 59 -30 13 -87 46 -127 74 -41 27 -85 53 -99 57 -27 9 -142 114
-135 124 2 4 -19 15 -46 24 -29 11 -63 33 -82 54 -17 20 -56 59 -85 87 -104
99 -570 572 -641 651 -116 126 -308 359 -404 488 -81 109 -142 168 -187 182
-10 3 -25 27 -35 53 -32 85 -132 285 -207 413 -64 108 -73 129 -66 154 7 29
-2 45 -29 45 -10 0 -13 24 -13 85 0 64 -3 85 -13 85 -10 0 -18 36 -29 122 -9
67 -21 124 -27 126 -6 2 -11 13 -11 25 0 12 -9 67 -19 122 -10 55 -21 116 -24
136 l-5 36 67 12 c76 14 94 22 97 48 2 10 10 23 20 28 9 6 30 20 48 32 17 13
42 28 56 34 28 13 30 13 160 85 171 94 311 126 449 101 37 -6 42 -5 38 8 -5
10 0 15 13 15 12 0 22 9 26 24 6 27 20 30 174 42 47 4 96 12 110 19 16 8 49
10 87 7 101 -7 217 14 314 59 47 21 101 39 120 39 53 0 76 10 88 37 9 21 17
24 49 22 63 -3 72 0 72 24 1 18 17 30 83 62 66 32 86 47 102 77 11 20 29 42
40 48 25 14 66 77 96 150 18 44 23 74 23 150 -1 81 -5 108 -32 182 -18 49 -32
94 -32 100 0 27 -60 137 -114 206 -77 101 -90 149 -88 326 2 136 3 138 31 173
17 20 27 42 24 53 -3 10 4 27 16 39 12 12 21 30 21 41 0 12 20 34 53 58 62 47
139 127 160 169 14 25 27 33 98 52 45 13 99 34 118 47 20 13 44 24 55 24 30 0
185 80 205 106 11 13 29 24 40 24 62 0 118 60 152 163 20 60 21 74 11 133 -10
61 -9 68 10 95 29 39 39 221 14 270 -9 18 -16 51 -16 73 0 23 -7 54 -15 70 -8
15 -15 41 -15 55 0 18 -11 37 -30 54 -16 15 -30 34 -30 41 0 23 -117 192 -154
223 -18 15 -55 66 -82 112 -32 54 -80 114 -137 172 -48 48 -92 102 -98 118 -6
17 -18 31 -26 31 -39 0 -82 42 -124 123 -52 102 -158 226 -209 247 -21 8 -51
30 -68 48 -16 17 -37 32 -45 32 -9 0 -25 15 -37 34 -19 32 -50 49 -129 72 -21
6 4 31 39 39 34 8 90 67 90 96 0 12 12 27 31 37 18 9 47 29 64 45 18 15 37 27
43 27 5 0 15 7 22 15 7 9 29 15 51 15 21 0 50 5 65 11 53 20 174 102 174 119
0 23 84 84 166 120 38 18 82 39 98 47 27 15 30 15 41 0 10 -15 21 -10 94 40
46 31 85 62 88 70 3 7 16 13 30 13 23 0 66 33 74 59 4 10 10 10 32 0 22 -10
30 -10 44 3 10 9 27 18 38 20 12 2 21 13 23 26 3 18 10 22 40 22 59 0 140 26
237 75 50 25 102 45 115 45 14 0 35 7 47 15 11 8 63 30 114 49 52 18 120 45
153 60 39 17 76 26 112 26 67 0 103 13 134 50 24 28 34 31 185 55 88 14 185
32 216 40 31 8 74 15 95 16 22 0 48 4 59 8 11 5 27 5 35 1 8 -4 51 -8 95 -8z
m1538 -302 c67 -21 142 -42 167 -46 25 -4 70 -22 100 -40 71 -43 124 -51 189
-30 l51 16 45 -34 c45 -35 99 -56 143 -56 21 0 168 -126 213 -185 11 -14 30
-25 41 -25 36 0 126 -30 153 -52 17 -13 25 -27 22 -39 -4 -15 24 -39 134 -115
77 -52 175 -114 217 -137 42 -22 104 -58 136 -79 33 -21 69 -38 81 -38 13 0
28 -7 36 -16 16 -20 70 -47 136 -68 44 -15 61 -28 104 -82 123 -155 402 -356
451 -325 10 6 37 11 62 11 60 0 92 -27 111 -95 9 -29 29 -73 45 -97 16 -24 30
-54 30 -66 0 -23 13 -44 72 -116 15 -18 48 -41 73 -50 44 -17 47 -21 120 -164
41 -81 95 -174 121 -206 36 -45 47 -69 50 -101 2 -23 16 -76 32 -116 16 -41
32 -87 36 -104 4 -16 16 -35 27 -43 10 -7 19 -23 19 -35 0 -12 6 -34 14 -49 8
-14 19 -43 26 -65 7 -21 34 -72 60 -113 59 -95 210 -478 210 -535 0 -27 11
-58 33 -95 18 -30 38 -74 45 -97 7 -24 26 -73 43 -110 16 -37 33 -87 36 -111
5 -39 8 -43 29 -39 19 3 24 0 25 -17 2 -32 -2 -50 -14 -65 -16 -19 -12 -65 22
-257 30 -166 50 -339 45 -399 -2 -16 2 -153 8 -304 8 -217 8 -289 -2 -345 -7
-39 -14 -116 -15 -171 -2 -55 -10 -147 -18 -205 -9 -58 -21 -159 -26 -226 -6
-67 -17 -136 -25 -155 -16 -40 -41 -262 -32 -278 4 -6 3 -11 -2 -11 -12 0 -28
-40 -93 -225 -27 -77 -67 -176 -88 -220 -21 -44 -42 -93 -47 -110 -6 -19 -17
-31 -31 -33 -12 -2 -27 -10 -33 -18 -17 -19 -37 -18 -68 5 -15 10 -43 26 -62
34 -35 16 -100 70 -100 84 0 11 -134 141 -188 182 -66 52 -92 105 -102 211 -7
74 -15 104 -45 162 -43 85 -52 138 -32 193 14 39 13 42 -15 90 -16 28 -56 104
-90 170 -74 147 -97 180 -187 273 -39 41 -71 78 -71 83 0 13 -78 48 -106 49
-12 0 -27 7 -35 16 -7 9 -47 33 -88 54 -79 39 -114 70 -125 107 -4 12 -21 34
-39 49 -28 24 -36 26 -87 20 -30 -3 -107 -10 -170 -15 -107 -8 -120 -11 -179
-45 -36 -20 -70 -44 -77 -54 -10 -14 -14 -14 -28 -3 -10 9 -30 11 -63 7 -28
-4 -83 0 -133 9 -47 8 -98 15 -114 15 -16 0 -70 21 -119 46 -79 41 -96 46
-138 42 -34 -4 -56 0 -72 11 -14 9 -44 29 -68 46 -62 42 -157 78 -203 77 -43
-2 -66 11 -66 38 0 10 -10 20 -24 24 -13 3 -54 24 -92 46 -76 44 -89 47 -98
24 -9 -24 -75 -13 -128 20 -78 48 -172 114 -213 149 -22 19 -57 45 -77 58 -26
17 -38 31 -38 48 0 21 -3 23 -30 17 -40 -7 -80 9 -80 33 0 25 -3 27 -170 106
-80 37 -153 79 -163 91 -10 13 -36 33 -58 46 -21 12 -48 36 -58 54 -12 20 -33
36 -57 44 -21 7 -62 28 -92 47 -29 19 -70 37 -90 40 -20 4 -61 19 -90 35 -30
15 -64 28 -76 28 -36 0 -152 187 -198 320 -27 79 -37 129 -53 265 -18 152 -18
220 1 270 9 22 17 80 18 130 1 50 8 99 14 110 6 11 25 56 42 100 40 106 86
167 156 206 31 18 61 40 67 51 13 21 247 153 289 163 15 4 30 15 33 25 12 39
50 72 125 110 82 41 133 92 146 146 4 16 12 38 18 49 12 22 37 147 37 180 -3
105 -23 310 -34 350 -50 174 -117 484 -119 545 -7 238 43 585 95 667 14 21 35
68 46 105 47 156 81 181 229 173 60 -4 118 -16 205 -45z m-4517 -1115 c19 -8
54 -30 78 -50 24 -19 49 -35 57 -35 27 0 59 -31 59 -56 0 -41 17 -61 65 -80
52 -19 65 -37 65 -87 0 -58 28 -122 68 -154 43 -34 95 -63 115 -63 10 0 12 -9
9 -32 -4 -26 0 -36 26 -57 16 -15 41 -51 55 -83 14 -32 35 -61 49 -68 42 -22
66 -52 89 -109 12 -31 33 -70 46 -88 12 -17 23 -42 23 -55 0 -17 13 -33 45
-56 25 -17 45 -37 45 -44 0 -7 -7 -38 -15 -68 -24 -88 -20 -158 13 -224 20
-39 25 -56 16 -56 -27 0 -48 -63 -52 -157 -3 -64 -8 -93 -17 -93 -6 0 -27 -17
-47 -37 -36 -39 -158 -128 -214 -156 -17 -9 -62 -23 -100 -32 -117 -27 -206
-76 -326 -179 -27 -23 -48 -47 -48 -54 0 -7 -14 -25 -30 -39 -17 -14 -42 -47
-55 -72 -13 -26 -31 -53 -39 -60 -9 -8 -16 -26 -16 -42 0 -15 -5 -40 -11 -56
-6 -15 -19 -77 -30 -138 -10 -60 -24 -122 -30 -137 -6 -15 -9 -53 -6 -85 7
-85 35 -256 47 -289 6 -16 49 -78 95 -139 142 -187 176 -294 134 -432 -17 -56
-234 -202 -348 -234 -36 -10 -93 -32 -126 -48 -47 -22 -80 -30 -150 -35 -49
-3 -166 -19 -258 -35 -151 -27 -200 -32 -290 -31 -18 1 -44 -13 -78 -42 -50
-42 -50 -42 -78 -25 -38 22 -74 22 -95 -2 -14 -15 -24 -17 -54 -10 -37 8 -94
0 -148 -22 -16 -6 -47 -11 -69 -10 -33 1 -52 -7 -105 -44 -68 -48 -119 -78
-157 -89 -23 -7 -23 -6 -23 87 0 64 -5 104 -15 124 -10 20 -19 87 -26 189 -5
88 -14 177 -19 199 -18 75 -14 93 23 103 28 7 34 14 44 56 16 64 43 276 43
337 0 35 -6 58 -21 79 -25 33 -21 61 15 118 16 26 32 83 51 187 17 90 37 166
51 192 12 24 26 69 30 101 9 74 86 304 119 353 19 29 25 52 25 92 0 38 9 77
31 128 17 41 54 145 84 231 29 87 60 169 69 182 9 14 16 30 16 36 0 6 11 26
25 44 14 18 25 42 25 53 0 21 117 223 150 258 11 11 26 41 35 65 22 65 35 88
61 104 20 14 22 14 17 -4 -8 -31 3 -24 42 26 19 26 35 58 35 71 0 25 114 183
132 183 5 0 16 16 24 35 9 23 25 40 48 49 35 15 202 175 268 256 20 25 49 68
64 96 58 105 145 215 192 245 53 33 119 39 178 14z m8268 -6360 c6 -17 21 -46
33 -65 37 -60 102 -247 118 -338 8 -48 19 -168 25 -267 6 -99 14 -205 19 -236
8 -48 7 -63 -10 -96 -11 -22 -26 -71 -34 -109 -24 -113 -15 -312 14 -322 7 -2
2 -13 -11 -27 -21 -21 -102 -258 -154 -450 -8 -27 -31 -87 -51 -133 -30 -68
-42 -86 -68 -96 -35 -15 -61 -60 -74 -130 -15 -81 -70 -188 -111 -217 -59 -42
-92 -93 -98 -149 -3 -37 -9 -51 -23 -55 -28 -9 -69 -64 -69 -93 0 -20 -8 -31
-33 -42 -22 -11 -35 -25 -42 -50 -14 -49 -82 -130 -108 -130 -14 0 -70 -50
-162 -142 -77 -79 -168 -167 -202 -196 -156 -132 -252 -317 -274 -527 -15
-139 -16 -144 -42 -150 -39 -9 -349 -9 -444 -1 -85 8 -94 7 -130 -14 -35 -20
-42 -21 -89 -10 -29 7 -66 10 -85 5 -51 -10 -86 -10 -169 4 -73 11 -127 9
-202 -10 -34 -9 -41 -7 -82 25 -77 58 -130 71 -306 72 -85 0 -163 1 -173 2
-24 3 -54 55 -62 111 -4 25 -14 58 -23 73 -15 26 -15 31 3 79 18 50 18 54 0
105 -16 48 -17 66 -7 172 10 114 13 123 62 218 53 103 79 202 80 310 0 38 5
56 20 69 11 10 22 34 26 54 4 24 20 50 48 77 22 22 68 70 102 106 49 52 72 69
115 83 85 28 144 61 214 120 35 30 67 55 71 55 11 0 355 210 424 259 36 25 91
72 122 103 32 32 85 71 120 89 257 129 491 348 644 604 42 70 63 96 85 104 44
15 53 -11 46 -128 -8 -125 -44 -328 -63 -355 -7 -11 -14 -27 -14 -34 0 -8 -16
-32 -35 -55 -19 -22 -40 -56 -47 -74 -7 -18 -19 -33 -28 -33 -20 0 -78 -85
-91 -135 -22 -80 15 -146 112 -194 81 -40 168 -43 244 -7 57 26 145 117 145
149 0 11 17 35 39 54 22 18 47 51 57 71 9 21 30 47 46 58 35 22 98 101 98 121
0 8 27 51 61 95 77 103 116 181 135 271 9 40 24 88 35 108 10 20 16 39 13 42
-4 3 3 21 14 39 11 18 35 89 52 158 27 112 33 164 55 485 15 224 30 383 40
420 9 33 21 77 26 98 12 46 37 47 53 2z m-464 -384 c0 -5 -7 -14 -15 -21 -20
-17 -20 -108 1 -160 26 -65 4 -233 -63 -475 -42 -154 -57 -179 -48 -80 4 41 2
91 -5 120 -14 66 -68 145 -124 186 -52 37 -56 53 -23 97 12 17 44 60 70 96 26
36 58 89 70 118 28 65 84 128 115 128 12 0 22 -4 22 -9z m-4939 -136 c100 -5
249 -41 340 -83 63 -28 66 -31 73 -71 4 -30 13 -45 29 -52 13 -6 36 -35 50
-65 32 -66 107 -120 107 -78 0 11 8 14 28 12 24 -3 27 -7 27 -43 0 -45 11 -68
28 -62 7 2 20 -9 30 -26 16 -26 22 -28 52 -23 22 4 35 3 35 -3 0 -6 15 -18 33
-27 17 -9 61 -39 96 -67 82 -64 114 -71 216 -51 77 15 82 14 129 -5 30 -13 69
-21 106 -21 38 0 62 -5 69 -14 10 -12 7 -15 -21 -18 -28 -3 -30 -5 -13 -13 11
-4 34 -21 52 -36 17 -15 59 -41 92 -59 33 -18 89 -57 123 -87 57 -50 153 -116
396 -272 45 -30 82 -59 82 -66 0 -7 13 -18 30 -25 42 -17 110 -94 110 -124 0
-15 15 -41 39 -66 33 -35 36 -42 22 -49 -38 -21 -149 -33 -356 -41 -151 -5
-233 -12 -261 -22 -38 -13 -43 -13 -64 4 -12 10 -32 18 -44 18 -23 0 -89 -52
-85 -67 1 -4 -45 -21 -102 -36 -57 -15 -113 -30 -124 -33 -30 -8 -76 12 -69
30 4 11 -6 18 -37 26 -36 10 -55 9 -109 -5 -36 -10 -84 -23 -107 -29 -23 -6
-44 -17 -45 -25 -2 -11 -44 -25 -138 -48 -124 -29 -136 -30 -153 -15 -13 12
-60 19 -195 28 -97 8 -229 21 -292 30 -63 9 -160 17 -215 19 -55 1 -113 7
-130 14 -16 7 -73 21 -125 31 -89 17 -91 18 -37 17 64 -2 81 10 72 53 -3 14
-46 108 -96 210 l-91 184 -39 201 c-22 110 -47 218 -55 239 -8 22 -19 91 -23
155 -5 64 -14 128 -19 142 -6 15 -8 29 -5 32 3 3 9 39 13 80 8 66 13 79 44
113 19 21 38 35 42 32 3 -4 28 8 54 26 26 18 77 46 114 62 36 15 66 32 66 36
0 5 8 8 18 8 9 0 40 13 67 29 44 26 52 27 66 15 10 -9 47 -16 100 -19z m-3866
-173 c20 -17 24 -28 19 -45 -9 -27 -25 -139 -27 -188 -2 -36 -2 -36 -32 -23
-26 11 -31 19 -36 61 -3 26 -7 53 -9 58 -2 6 2 30 9 54 12 41 9 108 -7 150 -3
9 9 3 26 -14 17 -16 43 -40 57 -53z m5742 -538 c-3 -3 -12 -4 -19 -1 -8 3 -5
6 6 6 11 1 17 -2 13 -5z m-1297 -1144 c12 -8 11 -10 -7 -10 -13 0 -23 5 -23
10 0 13 11 13 30 0z m1782 -1842 c29 -9 57 -9 111 0 58 9 90 8 157 -3 51 -9
222 -19 430 -25 223 -7 387 -16 465 -28 82 -11 186 -17 325 -18 113 0 215 -3
226 -7 24 -9 40 -43 48 -102 3 -22 15 -106 27 -186 12 -80 19 -153 16 -163 -4
-9 -27 -25 -52 -36 -25 -11 -45 -23 -45 -28 0 -15 -195 -62 -255 -62 -58 0
-116 19 -147 47 -16 15 -25 15 -67 4 -47 -12 -51 -11 -103 18 -91 52 -133 55
-375 26 -117 -14 -231 -32 -254 -40 -58 -21 -69 -19 -75 14 -6 27 -11 30 -58
36 -55 7 -125 -6 -164 -32 -21 -13 -33 -12 -113 6 -139 32 -176 57 -170 118 3
41 -28 233 -40 249 -5 7 1 20 17 35 25 23 25 27 19 96 -9 99 -3 105 77 81z
m-542 -572 c0 -5 -7 -3 -15 4 -8 7 -15 20 -15 28 0 13 3 12 15 -4 8 -10 15
-23 15 -28z m-5380 -591 c0 -2 -6 -8 -13 -14 -10 -8 -14 -7 -14 2 0 8 6 14 14
14 7 0 13 -1 13 -2z m-719 -3898 c-10 -9 -11 -8 -5 6 3 10 9 15 12 12 3 -3 0
-11 -7 -18z"/>
<path d="M5360 21841 c-98 -32 -117 -62 -95 -153 14 -59 13 -62 -12 -112 -14
-28 -39 -70 -55 -94 -39 -57 -68 -121 -68 -154 0 -15 -11 -43 -24 -63 -14 -20
-34 -64 -46 -100 -12 -35 -28 -69 -36 -76 -23 -19 -53 -82 -60 -127 -3 -22
-35 -93 -70 -158 -107 -198 -175 -336 -201 -403 -13 -35 -33 -75 -44 -89 -11
-14 -29 -57 -41 -96 -11 -39 -38 -105 -58 -146 -53 -107 -127 -293 -224 -562
-46 -129 -116 -311 -154 -404 -162 -391 -208 -600 -342 -1544 -44 -311 -88
-587 -98 -615 -14 -42 -17 -82 -15 -240 3 -282 25 -510 78 -840 14 -82 25
-172 25 -200 0 -64 16 -122 44 -160 19 -24 26 -58 41 -183 19 -165 17 -287 -8
-358 -23 -62 -38 -182 -31 -233 14 -104 75 -264 164 -431 10 -19 35 -66 55
-104 42 -79 114 -160 166 -186 34 -18 124 -108 156 -157 12 -19 13 -26 3 -38
-16 -19 -44 -19 -60 0 -7 8 -22 15 -35 15 -12 0 -65 22 -117 48 -113 58 -163
71 -330 85 l-126 10 -56 -27 c-61 -30 -114 -93 -142 -167 -21 -55 -24 -218 -6
-271 8 -21 31 -56 52 -78 33 -34 52 -72 85 -167 2 -7 89 -55 192 -107 231
-116 446 -243 437 -257 -3 -6 -35 -24 -70 -40 -35 -15 -64 -32 -64 -36 0 -5
-27 -18 -59 -31 -296 -115 -461 -447 -317 -636 33 -44 131 -93 204 -102 31 -3
74 -15 96 -26 21 -11 47 -17 58 -15 11 3 54 -3 97 -14 42 -11 141 -24 221 -30
80 -5 154 -15 165 -21 11 -6 90 -15 175 -20 501 -27 610 -55 780 -204 90 -78
185 -137 267 -165 60 -20 61 -21 91 -87 81 -183 135 -374 118 -419 -4 -8 1
-56 10 -107 31 -180 22 -197 -110 -195 -90 2 -136 -13 -174 -54 -52 -56 -34
-164 32 -188 28 -10 37 -19 41 -43 15 -99 36 -393 41 -596 3 -129 12 -266 19
-305 8 -42 10 -74 4 -79 -13 -15 -11 -44 5 -53 14 -8 27 -213 30 -473 1 -69
10 -198 21 -288 15 -131 17 -178 8 -236 -6 -44 -7 -93 -1 -126 17 -109 21
-197 9 -204 -15 -10 -14 -73 2 -88 11 -10 11 -17 -1 -41 -15 -31 -13 -109 7
-212 6 -32 6 -117 -1 -240 -11 -193 -6 -363 11 -423 7 -24 7 -39 -2 -52 -8
-13 -8 -27 -1 -47 7 -20 6 -39 -4 -68 -13 -39 -14 -118 -7 -1180 1 -131 5
-180 17 -212 13 -32 14 -50 7 -78 -7 -24 -7 -40 0 -48 16 -20 31 -220 60 -782
20 -384 25 -541 17 -573 -7 -30 -6 -101 3 -230 19 -288 25 -772 12 -964 -9
-131 -9 -172 0 -190 18 -33 108 -151 127 -165 19 -16 132 -17 184 -3 74 21 80
33 80 155 0 61 -3 134 -7 163 -7 48 -6 54 12 58 19 5 20 18 27 347 4 216 3
368 -3 412 -11 74 -46 201 -59 209 -8 5 -5 357 4 474 12 154 -35 562 -65 562
-4 0 -5 52 -3 116 4 109 3 116 -17 130 -18 13 -21 25 -21 92 0 64 5 85 25 121
28 47 33 102 11 120 -21 17 -27 69 -15 114 10 37 12 39 22 22 9 -18 12 -16 23
15 16 44 16 129 0 195 -9 38 -9 61 0 96 9 33 11 131 8 335 -3 159 -5 298 -4
309 1 11 2 106 4 210 1 119 9 237 20 315 12 82 16 150 13 200 -5 54 -3 82 7
100 10 17 11 30 4 43 -5 10 -10 44 -10 74 -1 47 3 59 23 74 l24 18 -22 39
c-19 34 -22 53 -22 181 0 78 -3 172 -6 209 -6 52 -3 77 9 106 13 31 14 46 6
71 -10 32 -8 139 5 246 l8 57 41 6 c22 4 58 12 79 18 33 10 37 15 37 43 0 44
-19 56 -95 63 -53 4 -65 8 -65 22 0 10 7 23 15 30 13 11 15 30 12 97 -2 46 -7
86 -10 90 -4 3 -7 24 -7 45 0 44 6 46 90 23 30 -8 71 -15 90 -15 l36 0 12
-127 c14 -147 15 -312 3 -364 -9 -40 13 -229 28 -238 7 -5 16 -261 11 -336 -3
-49 10 -392 19 -515 6 -74 11 -192 11 -262 0 -77 5 -137 12 -153 9 -21 9 -31
0 -46 -19 -30 -14 -86 13 -139 26 -52 32 -85 15 -95 -5 -3 -10 0 -10 7 0 8 -6
22 -13 31 -10 15 -13 7 -17 -50 -14 -219 -1 -325 41 -338 16 -5 18 -21 22
-158 2 -84 7 -165 11 -182 27 -123 38 -213 29 -241 -7 -19 -7 -38 -1 -54 6
-14 12 -77 14 -140 3 -63 9 -127 14 -142 4 -15 6 -36 3 -46 -3 -13 4 -29 18
-43 22 -22 24 -32 24 -124 0 -86 3 -104 22 -130 18 -27 19 -33 7 -49 -17 -24
-8 -247 13 -286 8 -16 13 -64 13 -140 0 -120 19 -263 48 -365 13 -46 17 -104
18 -245 2 -346 21 -497 71 -552 9 -10 68 -35 132 -54 102 -32 119 -35 148 -25
18 7 42 10 53 6 15 -5 21 0 26 19 4 19 -1 34 -20 57 -37 44 -36 101 2 119 15
7 30 13 34 12 4 -1 10 8 12 21 3 12 7 34 11 50 8 39 6 304 -3 352 l-8 40 -8
-30 c-8 -27 -9 -28 -16 -10 -14 33 -11 107 6 170 20 73 20 79 -3 155 -14 49
-22 61 -46 69 -25 9 -27 13 -16 32 7 14 10 47 6 88 -6 77 11 130 44 138 20 6
21 11 16 64 -6 66 -15 88 -28 68 -7 -12 -9 -11 -9 1 -1 8 -11 124 -23 258 -13
133 -19 242 -15 242 4 0 8 11 8 25 0 14 -4 25 -10 25 -13 0 -13 37 1 45 6 4 7
14 3 24 -4 9 -10 60 -14 113 -4 54 -13 105 -20 113 -7 8 -15 44 -18 80 -5 62
-6 67 -36 79 -82 34 -85 71 -10 147 50 51 56 61 56 100 1 56 -11 109 -23 109
-6 0 -8 4 -5 8 3 5 -10 41 -28 79 -31 64 -34 82 -41 194 -7 135 2 186 31 175
13 -5 15 -2 10 16 -3 13 -6 29 -6 37 0 7 -6 11 -15 8 -19 -8 -52 35 -65 84 -7
24 -8 83 -4 152 l6 112 -36 70 c-21 38 -40 88 -43 111 -6 45 13 118 28 109 12
-8 12 -11 -12 129 -11 67 -21 158 -22 203 -2 63 -5 79 -14 71 -22 -18 -36 39
-28 116 3 37 8 73 11 80 2 6 -11 29 -31 50 -42 46 -49 70 -42 141 4 44 2 56
-14 71 -10 9 -19 22 -19 29 0 17 37 48 49 41 5 -4 13 3 16 15 13 41 -19 234
-36 223 -6 -3 -16 0 -24 6 -11 9 -13 28 -9 84 5 63 2 80 -24 152 -40 108 -47
178 -16 172 12 -2 20 11 31 52 9 30 21 74 27 97 l12 43 21 -22 c28 -27 75 -28
112 0 28 21 94 33 107 19 13 -13 44 -143 44 -186 0 -25 10 -79 21 -120 18 -62
20 -92 16 -165 -5 -77 -3 -93 13 -115 19 -28 45 -110 53 -173 4 -26 1 -41 -10
-49 -25 -21 -33 -55 -22 -91 6 -18 10 -64 10 -101 -1 -39 5 -80 13 -95 7 -15
11 -32 9 -39 -2 -7 3 -49 12 -93 12 -60 14 -89 6 -110 -6 -19 -6 -41 0 -62 5
-18 11 -94 13 -168 2 -82 8 -145 15 -159 8 -13 16 -95 21 -199 5 -98 18 -270
29 -383 16 -160 17 -214 9 -242 -9 -30 -8 -50 10 -114 16 -59 23 -121 27 -253
4 -96 13 -227 20 -290 8 -63 14 -146 15 -185 1 -115 26 -339 39 -343 7 -2 11
-35 11 -90 0 -48 7 -132 15 -187 8 -55 15 -137 15 -182 0 -67 3 -83 15 -83 8
0 15 -6 15 -12 0 -7 7 -58 15 -113 8 -55 15 -136 15 -180 0 -50 8 -103 19
-141 11 -34 29 -124 41 -200 11 -77 28 -168 37 -204 8 -36 17 -89 20 -119 2
-29 13 -77 23 -105 10 -28 20 -85 23 -126 3 -43 18 -114 35 -166 17 -50 32
-104 34 -120 2 -23 9 -30 37 -35 57 -12 66 -31 110 -228 23 -101 44 -188 47
-193 3 -4 25 -8 50 -8 43 0 45 -1 63 -44 14 -32 27 -46 52 -55 44 -15 46 -15
52 15 4 20 -2 33 -26 54 -38 34 -33 49 32 92 53 34 62 51 36 66 -18 10 -20 30
-10 88 6 38 5 43 -15 49 -21 7 -22 11 -16 70 3 35 2 74 -4 89 -19 52 -47 19
-28 -34 13 -39 0 -55 -37 -46 -23 6 -26 11 -23 44 2 29 10 41 35 57 24 15 32
28 33 48 0 28 -1 29 -40 22 -26 -4 -40 -3 -40 4 0 6 4 11 9 11 5 0 23 12 40
26 26 21 31 33 31 68 0 46 -22 86 -48 86 -9 0 -28 -9 -42 -20 -25 -20 -64 -25
-94 -14 -20 8 -21 53 -3 79 14 18 49 18 112 0 11 -3 26 -1 34 4 11 7 10 15 -8
45 -20 31 -22 44 -16 100 l7 63 -61 64 c-74 78 -91 113 -68 137 9 9 31 21 48
26 53 18 72 54 77 149 3 65 -1 100 -18 162 -12 44 -27 83 -34 88 -8 5 -7 9 2
16 8 4 13 11 13 15 -1 3 -1 7 0 9 1 1 2 14 3 30 3 23 0 26 -16 22 -13 -5 -18
-1 -18 14 0 14 6 21 19 21 15 0 18 7 15 42 -2 22 -9 46 -15 52 -9 8 -10 8 -5
-1 5 -9 2 -11 -10 -6 -11 4 -13 8 -6 11 8 2 1 14 -17 31 -32 30 -36 68 -6 63
11 -2 14 1 9 9 -4 8 -3 10 5 5 6 -4 9 -12 6 -17 -4 -5 0 -12 9 -15 8 -3 12
-13 9 -22 -4 -15 -3 -15 6 -2 7 9 11 10 11 3 0 -23 -20 -24 -29 -1 -6 13 -10
17 -10 10 -1 -7 -5 -10 -11 -7 -5 3 -10 3 -10 -2 1 -14 46 -42 56 -35 12 9 13
102 1 102 -4 0 -6 4 -3 9 3 5 -1 14 -9 21 -10 9 -14 23 -10 44 3 17 -1 73 -8
125 -12 94 -12 95 -43 103 -41 10 -47 27 -27 83 14 42 14 52 0 101 -16 57 -14
77 11 106 14 16 12 25 -16 85 -30 66 -31 71 -26 178 5 95 3 115 -13 145 -10
19 -25 34 -32 32 -7 -1 -24 4 -37 13 -29 19 -31 58 -5 84 20 20 20 20 0 45
-18 23 -20 38 -17 148 2 102 0 129 -15 156 -12 22 -16 43 -11 67 5 31 3 35
-35 59 -48 31 -51 49 -13 73 15 10 29 21 32 25 3 4 5 67 5 140 -1 128 -2 135
-28 174 -25 37 -27 46 -21 98 4 31 11 59 15 62 15 9 9 76 -11 134 -20 58 -26
140 -11 168 5 11 -2 62 -20 142 -16 69 -32 162 -35 207 -7 79 -8 83 -30 83
-29 0 -30 14 -5 46 27 35 28 175 2 244 -13 34 -15 52 -8 59 6 6 9 56 8 127 -2
120 -23 207 -56 234 -16 13 -26 63 -50 233 -16 120 -40 198 -76 249 -20 27
-20 28 -1 28 21 0 25 15 38 143 4 37 10 67 13 67 3 0 36 -7 72 -17 62 -16 70
-16 108 -1 37 15 41 15 46 0 3 -10 17 -25 30 -35 22 -15 25 -16 25 -2 0 8 4
15 9 15 5 0 16 2 23 5 11 5 14 -20 13 -133 0 -134 -1 -140 -28 -180 -32 -49
-34 -84 -7 -152 26 -67 26 -80 -4 -80 -27 0 -34 -15 -34 -69 -1 -40 22 -101
37 -101 6 0 10 -6 8 -12 -1 -8 7 -12 19 -11 33 3 75 -48 81 -99 4 -35 0 -50
-22 -82 -22 -33 -43 -79 -62 -138 -3 -9 7 -42 21 -72 26 -56 34 -120 16 -131
-6 -3 -10 -21 -10 -40 0 -18 -5 -35 -11 -37 -8 -3 -5 -17 9 -43 21 -39 21 -39
22 -12 0 17 4 26 11 22 19 -12 30 -59 24 -95 -6 -33 -8 -34 -21 -15 -14 18
-14 18 -14 -2 0 -12 6 -52 14 -90 8 -37 20 -126 26 -198 13 -139 14 -145 34
-145 10 0 15 -29 20 -106 8 -121 27 -201 60 -261 23 -41 24 -42 5 -59 -14 -13
-19 -14 -19 -4 0 9 -3 11 -10 4 -17 -17 -23 -157 -11 -244 15 -103 18 -109 42
-103 18 5 19 -1 19 -84 0 -105 10 -142 56 -202 38 -49 41 -71 19 -154 -14 -54
-14 -58 7 -93 22 -37 22 -37 3 -88 -10 -28 -19 -73 -20 -101 -1 -27 -7 -76
-13 -108 -13 -70 -8 -108 25 -165 22 -39 27 -42 66 -42 23 0 47 4 53 8 26 17
36 55 29 111 -4 31 -7 108 -6 171 0 63 -4 187 -10 275 -6 88 -12 248 -13 355
-2 181 -4 200 -29 272 -26 76 -26 77 -11 150 20 91 14 194 -21 378 -15 74 -29
191 -32 259 -5 112 -8 125 -30 147 -15 15 -23 35 -23 56 0 33 -35 514 -86
1210 l-27 366 24 31 c13 17 34 33 46 37 12 3 33 20 47 38 22 29 23 37 15 80
-14 75 -43 130 -88 166 -36 30 -41 38 -41 76 0 67 26 88 141 111 14 2 44 0 67
-7 41 -11 42 -11 42 -56 0 -24 7 -61 15 -81 21 -50 21 -173 -1 -173 -8 0 -13
-4 -10 -8 3 -5 12 -73 21 -152 21 -179 48 -290 75 -309 24 -16 26 -48 4 -72
-18 -20 -13 -85 32 -464 28 -236 30 -245 49 -245 21 0 26 -30 23 -132 -2 -77
0 -99 15 -122 11 -16 20 -52 23 -88 3 -53 1 -61 -16 -65 -18 -5 -20 -14 -20
-85 0 -117 30 -461 41 -473 5 -5 9 7 10 35 0 42 1 43 11 20 7 -16 11 -82 10
-177 -2 -126 0 -153 12 -153 11 0 15 -31 18 -158 2 -91 0 -164 -6 -173 -6 -12
-4 -28 8 -54 14 -29 17 -49 11 -84 -8 -49 -8 -73 0 -136 3 -22 7 -69 10 -105
7 -116 16 -182 24 -199 5 -9 11 -50 14 -91 3 -41 14 -102 25 -135 11 -33 23
-95 26 -138 4 -48 14 -97 27 -125 21 -45 33 -171 30 -292 -1 -19 -1 -122 0
-229 1 -195 9 -252 43 -291 28 -31 69 -301 91 -595 8 -115 20 -250 25 -300 21
-192 60 -701 70 -930 16 -331 22 -351 114 -342 44 4 57 1 93 -24 75 -52 113
-32 144 78 9 34 20 50 43 62 17 9 48 32 68 52 36 34 38 41 38 95 0 33 -7 84
-15 114 -8 30 -15 87 -15 125 0 78 -19 209 -50 341 -12 49 -23 136 -26 194 -7
149 -32 376 -55 505 -11 60 -37 229 -59 375 -22 146 -50 337 -64 425 -43 274
-60 565 -42 730 6 60 5 75 -12 108 -16 29 -19 50 -15 90 3 34 -16 198 -53 467
-32 228 -58 447 -59 485 -2 91 -2 91 -22 111 -16 16 -18 41 -18 218 -1 173 -4
213 -22 288 -15 59 -20 102 -17 135 4 34 0 64 -14 104 -10 30 -17 68 -15 85 3
16 -18 173 -46 349 -75 475 -101 687 -111 920 -9 188 -15 251 -36 390 -3 22
-5 90 -4 150 1 71 -6 147 -18 215 -14 76 -18 132 -15 205 3 63 -3 175 -16 300
-22 220 -38 582 -27 639 9 47 59 104 113 127 51 22 60 38 42 81 -37 90 -114
138 -237 147 -63 5 -87 11 -97 24 -17 23 -47 145 -100 407 -47 230 -76 331
-130 450 -18 41 -45 115 -60 165 -15 49 -58 150 -96 225 -39 74 -75 154 -80
177 -12 45 -32 69 -64 75 -13 2 -25 17 -33 43 -7 22 -38 91 -68 153 -36 73
-62 145 -74 200 -10 48 -26 104 -34 124 -9 21 -16 50 -16 65 0 16 -7 53 -16
83 -8 30 -24 90 -35 133 -10 43 -37 120 -58 170 -21 51 -45 111 -52 134 -7 25
-20 45 -31 48 -15 5 -18 17 -18 72 0 40 6 78 16 100 22 45 79 83 125 83 42 0
150 51 176 83 33 40 147 134 190 156 24 12 49 34 57 49 17 33 115 112 216 174
257 158 434 396 608 814 76 182 110 401 119 761 6 259 -4 442 -38 643 -10 63
-19 131 -19 151 0 54 -46 204 -86 283 -19 37 -62 134 -95 215 -33 80 -71 164
-84 187 -13 22 -45 81 -71 130 -26 49 -61 114 -80 144 -40 67 -104 200 -104
216 0 7 -15 34 -34 61 -19 28 -50 81 -69 119 -19 38 -70 121 -112 184 -43 63
-91 143 -107 176 -16 34 -38 70 -48 79 -11 10 -25 37 -31 59 -15 56 -45 106
-140 231 -45 59 -85 122 -90 140 -5 19 -24 51 -42 73 -18 21 -65 87 -105 148
-41 61 -89 121 -111 137 -21 16 -63 61 -92 99 -30 39 -81 105 -114 147 -33 42
-75 107 -94 146 -28 57 -61 96 -187 223 -84 85 -158 167 -164 182 -6 14 -129
146 -274 292 -207 210 -277 287 -330 366 -76 113 -162 200 -252 256 -50 31
-65 46 -78 81 -12 31 -54 81 -145 173 -106 109 -134 132 -172 142 -24 7 -49
14 -56 15 -6 2 -36 37 -66 78 -56 76 -124 129 -205 161 -52 20 -147 29 -182
17z m309 -607 c118 -91 165 -143 181 -203 12 -46 24 -61 77 -98 23 -17 53 -44
67 -60 14 -17 48 -45 74 -62 27 -17 55 -45 64 -64 8 -18 55 -66 103 -107 157
-134 168 -146 162 -179 -5 -24 2 -38 45 -87 60 -71 88 -94 104 -87 7 2 22 0
33 -7 16 -8 21 -20 21 -50 0 -53 53 -113 120 -137 42 -15 48 -21 58 -57 6 -24
37 -72 72 -114 33 -41 60 -82 60 -91 0 -10 10 -26 21 -37 12 -10 48 -54 81
-96 32 -43 63 -78 68 -78 5 0 46 -46 92 -102 91 -113 176 -200 231 -238 24
-16 37 -34 40 -55 9 -56 50 -128 144 -253 51 -67 118 -168 149 -225 89 -160
124 -218 171 -278 23 -31 86 -137 140 -235 53 -99 120 -207 148 -242 29 -34
57 -73 63 -85 5 -12 40 -87 78 -167 37 -80 95 -202 129 -271 34 -70 70 -151
80 -180 31 -96 156 -423 169 -444 32 -49 57 -147 82 -312 39 -268 24 -427 -67
-697 -22 -66 -45 -149 -50 -183 -12 -84 -37 -154 -134 -374 -45 -102 -85 -202
-89 -221 -7 -38 -29 -63 -55 -63 -9 0 -54 -42 -99 -92 -81 -90 -119 -125 -232
-215 -30 -24 -68 -65 -85 -90 -26 -40 -40 -51 -107 -78 -87 -36 -149 -89 -169
-144 -7 -20 -16 -36 -19 -36 -19 0 -65 68 -109 161 -50 105 -91 161 -91 125 0
-31 -55 9 -116 85 -31 40 -70 79 -87 88 -16 9 -48 28 -71 43 -22 15 -51 28
-62 28 -12 0 -24 6 -27 14 -8 21 -109 38 -201 34 -97 -4 -162 -31 -249 -102
-70 -58 -94 -103 -108 -203 -6 -43 -14 -103 -19 -133 -8 -52 -7 -56 17 -76 23
-18 24 -23 13 -44 -10 -19 -10 -40 1 -108 13 -84 12 -85 -10 -103 -30 -25
-138 -27 -147 -4 -4 8 -14 15 -23 15 -9 0 -29 7 -46 16 -22 12 -45 14 -87 9
-57 -6 -58 -5 -88 29 -19 21 -53 43 -86 56 -31 11 -70 28 -87 37 -22 12 -61
18 -127 19 -142 4 -458 93 -452 128 2 13 -7 16 -62 16 -52 0 -89 9 -190 46
l-125 47 -138 124 c-128 115 -138 127 -144 166 -9 69 -51 134 -61 93 -2 -8
-36 32 -76 89 -41 57 -102 130 -135 161 -36 33 -57 59 -50 61 8 3 1 16 -19 36
-33 33 -81 128 -105 209 -7 26 -22 53 -32 60 -15 11 -21 32 -26 108 -4 52 -20
145 -35 205 -53 208 -65 337 -65 685 0 319 3 355 47 623 20 123 20 128 2 141
-17 13 -17 18 0 152 18 141 30 191 50 209 7 6 17 51 23 101 7 55 22 115 39
155 22 50 27 78 26 129 -1 54 3 71 23 100 13 19 36 79 50 132 27 107 294 920
330 1008 12 30 25 80 29 110 4 30 29 123 56 206 48 146 120 420 120 455 0 9
14 43 30 74 17 31 30 70 30 85 0 16 9 44 19 62 11 18 29 58 40 89 12 30 37 70
56 89 19 19 35 44 35 56 0 13 16 40 36 61 20 21 36 47 36 58 -1 11 -2 34 -3
51 -2 22 7 45 29 75 18 24 32 51 32 61 0 10 7 21 15 24 8 3 21 31 30 62 19 63
48 124 104 215 21 34 41 78 44 96 9 43 33 81 51 81 7 0 64 -39 125 -86z
m-1373 -6299 c12 -8 24 -28 28 -46 4 -21 26 -50 67 -88 89 -81 134 -127 219
-221 82 -91 139 -133 214 -155 28 -9 66 -31 91 -54 58 -53 99 -73 251 -119 71
-22 182 -58 246 -81 65 -22 151 -47 192 -55 41 -9 86 -20 100 -25 14 -6 78
-18 143 -26 134 -19 191 -36 248 -75 71 -48 102 -60 217 -79 62 -11 142 -31
178 -46 114 -45 280 -86 375 -91 105 -6 130 3 160 58 18 34 18 42 7 109 -14
80 -42 152 -74 186 -17 18 -19 29 -13 70 5 40 2 58 -19 103 -21 45 -26 70 -26
141 0 73 4 93 28 140 23 46 31 54 52 51 51 -6 96 -38 147 -107 98 -130 186
-346 253 -615 44 -181 106 -376 126 -400 26 -32 56 -112 50 -136 -4 -13 0 -40
9 -60 8 -19 22 -75 30 -123 47 -273 135 -496 338 -860 135 -244 224 -451 287
-669 25 -88 28 -110 23 -193 -6 -107 5 -164 42 -207 22 -27 23 -33 15 -92 -10
-74 -31 -106 -86 -137 -71 -39 -172 -53 -400 -52 -115 0 -234 -4 -264 -10 -30
-6 -100 -15 -156 -20 -55 -5 -110 -14 -122 -20 -17 -9 -28 -8 -51 4 -38 19
-116 19 -190 1 -31 -8 -108 -22 -171 -30 -63 -9 -164 -25 -225 -36 -120 -21
-182 -25 -204 -11 -11 7 -15 38 -16 133 -1 108 -5 136 -34 233 -18 61 -41 130
-51 155 -10 25 -26 81 -35 125 -22 100 -33 121 -109 210 -33 39 -76 92 -93
118 -18 26 -45 52 -60 58 -33 12 -86 4 -103 -16 -19 -23 -30 -18 -45 19 -17
41 -113 122 -188 160 -29 14 -86 34 -127 44 -41 11 -93 27 -115 37 -101 43
-208 65 -325 65 -63 0 -155 4 -205 10 -100 10 -649 96 -707 111 -42 11 -53 32
-43 87 11 64 54 100 184 152 149 60 175 74 225 120 22 21 58 45 78 53 29 12
42 27 62 70 31 65 33 96 6 130 -11 14 -20 30 -20 35 0 20 -32 42 -59 42 -17 0
-37 10 -52 26 -13 14 -59 44 -101 65 -47 23 -84 50 -95 66 -25 41 -43 53 -81
53 -24 0 -45 10 -75 35 -36 31 -116 65 -153 65 -6 0 -23 15 -36 33 -14 17 -62
70 -106 116 -48 50 -84 95 -87 112 -8 34 16 82 56 111 26 20 26 20 69 -2 24
-12 84 -50 134 -84 68 -46 129 -76 241 -119 216 -82 275 -98 397 -104 275 -15
393 73 313 233 -23 46 -28 50 -54 46 -57 -8 -113 46 -99 96 9 34 -76 103 -154
126 -10 3 -18 13 -18 23 0 25 -61 98 -158 189 -61 56 -123 132 -223 272 l-139
195 -2 136 c-3 191 -3 214 5 234 8 21 35 22 63 2z m4084 -4205 c16 -16 20 -33
20 -86 0 -36 5 -75 11 -87 9 -16 9 -22 0 -25 -16 -5 -14 -43 5 -87 23 -57 10
-207 -22 -244 -22 -25 -23 -26 -37 -7 -13 18 -12 24 10 57 14 21 27 55 30 77
4 33 1 44 -27 75 -25 29 -39 37 -67 37 -19 0 -65 14 -103 30 -78 34 -85 35
-121 16 -14 -7 -53 -17 -85 -21 -71 -9 -130 -31 -147 -55 -13 -19 -45 -17
-174 12 -45 9 -56 9 -70 -4 -13 -11 -51 -17 -124 -22 -112 -7 -209 -27 -246
-52 -12 -7 -31 -14 -41 -14 -10 0 -22 -3 -26 -7 -4 -5 -20 -8 -34 -9 -15 0
-58 -4 -97 -8 l-70 -7 -53 61 c-30 33 -61 74 -69 91 -18 36 -10 94 14 107 11
7 14 19 11 41 -5 35 -6 35 37 20 25 -10 49 -9 114 5 45 9 124 16 177 16 63 0
102 5 117 14 34 21 165 46 247 47 41 1 100 1 130 1 30 1 100 -1 155 -3 71 -3
107 0 124 10 19 11 28 11 48 0 19 -10 38 -11 91 -1 57 10 69 9 78 -3 12 -16
80 -20 103 -6 11 7 8 11 -10 16 -23 8 -23 9 11 21 50 18 67 17 90 -6z m-1802
-187 c10 -20 25 -141 26 -215 1 -65 -45 -132 -93 -136 l-34 -3 7 99 c6 91 5
103 -14 136 l-22 36 23 32 c38 56 51 68 75 68 13 0 27 -8 32 -17z m1422 -364
c0 -6 -15 -26 -33 -44 -30 -30 -100 -55 -156 -55 -10 0 -36 -6 -58 -14 -38
-13 -114 -9 -130 8 -16 16 43 56 98 67 32 6 65 19 73 28 11 12 37 17 110 18
64 2 96 -1 96 -8z m-482 -35 c28 -8 29 -43 3 -100 -25 -54 -62 -70 -129 -55
-58 12 -118 4 -247 -33 -49 -14 -114 -26 -144 -26 -68 0 -91 18 -91 72 0 59
14 78 58 78 20 0 50 7 66 15 22 12 59 15 140 15 61 -1 127 4 146 10 29 10 68
17 165 28 6 1 20 -1 33 -4z m-944 -115 c40 -24 46 -51 21 -99 -18 -34 -54 -40
-76 -14 -16 19 -14 100 2 120 14 17 11 18 53 -7z m1498 -544 c-2 -11 -17 -38
-33 -59 -16 -22 -29 -48 -29 -57 0 -10 -11 -31 -24 -46 -24 -28 -26 -28 -121
-25 -53 1 -105 7 -116 12 -19 11 -36 71 -24 90 4 6 26 20 49 29 23 10 47 25
54 34 8 9 38 19 70 23 31 4 66 10 77 15 11 5 38 7 60 6 34 -2 39 -5 37 -22z
m-1464 -97 c21 -21 13 -38 -18 -38 -23 0 -30 5 -30 19 0 17 11 27 31 30 3 1
10 -4 17 -11z m690 -98 c23 -10 42 -23 42 -28 0 -9 -67 -22 -148 -28 -27 -2
-71 -18 -118 -45 -61 -33 -78 -39 -85 -28 -14 22 -11 35 17 69 63 75 198 103
292 60z m-684 -150 c31 -11 33 -30 7 -54 -17 -16 -21 -16 -59 -1 -28 12 -41
24 -45 41 -4 22 -1 24 34 24 21 0 49 -4 63 -10z m1176 -1635 c0 -8 -14 -22
-31 -30 l-31 -17 7 34 c4 18 9 36 12 41 7 11 43 -12 43 -28z m-6 -113 c14 -21
26 -47 26 -58 0 -21 -35 -72 -44 -64 -7 7 -20 160 -14 160 3 0 17 -17 32 -38z
m173 -1550 c13 -8 33 -55 33 -78 0 -20 -27 -17 -50 6 -36 36 -22 97 17 72z
m370 -1137 c0 -8 -4 -12 -9 -9 -5 3 -6 10 -3 15 9 13 12 11 12 -6z m-233 -26
c-6 -10 42 -42 53 -36 5 3 19 -3 32 -12 20 -16 21 -19 7 -24 -10 -4 -15 -3
-11 3 3 6 -1 10 -10 10 -10 0 -13 5 -9 12 4 7 3 8 -5 4 -8 -6 -9 -12 -2 -20
14 -17 2 -28 -14 -13 -7 7 -10 18 -7 26 3 9 1 12 -6 7 -7 -4 -12 -15 -12 -25
0 -9 -5 -22 -12 -29 -6 -6 -8 -15 -4 -19 4 -4 11 -1 16 7 16 25 11 6 -8 -34
-16 -32 -20 -35 -26 -20 -4 9 -2 21 4 24 8 5 6 9 -5 14 -17 6 -17 29 -1 26 11
-2 26 20 26 38 0 6 -7 12 -15 12 -18 0 -19 12 -3 28 9 9 9 12 0 12 -7 0 -12 4
-12 8 0 5 7 9 15 9 8 0 12 -4 9 -8z m154 -47 c-3 -8 13 -29 52 -70 17 -17 20
-23 8 -19 -10 3 -20 1 -24 -5 -10 -15 -25 13 -18 35 4 12 1 17 -8 16 -7 -1
-21 1 -30 5 -15 7 -15 9 0 27 18 20 24 24 20 11z m-158 -22 c0 -5 -4 -10 -10
-10 -5 0 -10 5 -10 10 0 6 5 10 10 10 6 0 10 -4 10 -10z m236 -37 c-6 -6 -36
9 -36 18 0 5 9 4 20 -3 10 -7 18 -14 16 -15z m-183 -20 c-9 -3 -10 -10 -4 -22
6 -10 6 -23 1 -31 -7 -12 -9 -10 -8 5 0 11 0 25 -2 30 -1 6 -2 19 -1 30 1 16
3 17 14 6 9 -11 9 -14 0 -18z m-26 -55 c-3 -7 -5 -2 -5 12 0 14 2 19 5 13 2
-7 2 -19 0 -25z m150 -10 c-3 -7 -5 -2 -5 12 0 14 2 19 5 13 2 -7 2 -19 0 -25z
m20 0 c-3 -7 -5 -2 -5 12 0 14 2 19 5 13 2 -7 2 -19 0 -25z m-10 -49 c0 -24
-2 -27 -10 -14 -5 9 -6 23 -3 31 8 22 13 17 13 -17z m37 15 c12 -5 13 -9 3
-25 -6 -10 -15 -19 -20 -19 -4 0 -6 4 -3 9 4 5 1 11 -6 13 -6 2 -8 10 -4 16 8
14 9 14 30 6z"/>
<path d="M4815 17955 c-57 -20 -89 -61 -120 -155 -15 -46 -45 -120 -66 -165
-21 -46 -45 -109 -55 -141 -9 -33 -23 -68 -29 -79 -7 -11 -16 -36 -20 -55 -4
-19 -13 -45 -21 -57 -8 -12 -14 -36 -14 -53 0 -18 -10 -68 -21 -113 -20 -77
-22 -108 -23 -492 -1 -414 3 -479 40 -670 10 -47 24 -89 35 -101 11 -12 25
-39 30 -60 14 -51 36 -74 69 -74 15 0 41 -5 58 -11 21 -7 42 -7 71 1 61 16 74
48 77 195 2 66 7 134 12 150 6 19 6 50 0 80 -14 79 -21 533 -10 730 7 122 15
194 26 225 10 25 21 90 26 146 5 55 23 161 41 235 17 74 35 172 39 219 4 48
12 86 19 88 17 6 14 104 -4 129 -15 21 -71 43 -105 43 -8 -1 -33 -7 -55 -15z"/>
<path d="M4764 15236 c-29 -29 -34 -41 -34 -80 0 -81 57 -161 132 -185 18 -6
62 -15 97 -20 135 -21 193 51 138 172 -32 70 -75 102 -172 127 -106 27 -121
26 -161 -14z"/>
<path d="M8360 10650 c0 -8 5 -22 10 -30 9 -13 10 -13 10 0 0 8 -5 22 -10 30
-9 13 -10 13 -10 0z"/>
<path d="M8086 4651 c-3 -5 1 -11 9 -15 8 -3 15 -1 15 4 0 13 -18 22 -24 11z"/>
<path d="M42685 19443 c-36 -10 -84 -93 -114 -201 -10 -38 -37 -103 -60 -144
-23 -42 -41 -88 -41 -106 0 -17 -11 -48 -25 -68 -14 -21 -28 -49 -31 -63 -4
-14 -16 -48 -29 -76 -58 -129 -135 -324 -135 -343 0 -12 11 -29 25 -38 14 -9
28 -27 31 -40 8 -33 98 -114 126 -114 55 0 91 51 167 241 46 114 103 305 121
404 4 22 23 78 43 125 52 126 67 185 67 269 0 125 -50 178 -145 154z"/>
<path d="M40502 19068 c-18 -23 -21 -150 -5 -258 8 -58 28 -177 44 -265 16
-88 31 -196 35 -240 7 -107 36 -198 81 -266 97 -142 144 -177 193 -141 38 28
52 97 47 227 -5 117 -30 210 -84 304 -14 23 -36 93 -50 154 -31 138 -138 448
-164 476 -22 24 -80 29 -97 9z"/>
<path d="M44720 18852 c-74 -33 -170 -133 -170 -176 0 -17 -5 -26 -16 -26 -21
0 -134 -116 -184 -189 -21 -31 -80 -103 -132 -161 -114 -128 -365 -430 -401
-485 -32 -47 -35 -97 -8 -142 37 -59 103 -56 172 8 24 22 61 50 82 62 21 12
46 35 57 52 20 32 183 195 211 211 9 5 25 23 36 41 10 17 51 56 90 87 39 31
86 78 103 105 18 27 73 84 123 127 107 92 157 143 197 200 36 52 44 82 30 119
-13 34 -89 156 -105 167 -12 9 -65 9 -85 0z"/>
<path d="M16975 18080 c-47 -3 -102 -15 -133 -28 -34 -14 -74 -22 -113 -22
-86 0 -240 -18 -343 -41 -157 -33 -468 -163 -567 -235 -29 -21 -67 -38 -100
-44 -30 -6 -65 -19 -79 -30 -14 -10 -49 -33 -77 -50 -104 -60 -340 -246 -431
-339 -51 -53 -115 -129 -142 -168 -27 -40 -61 -83 -75 -96 -18 -15 -30 -38
-36 -70 -6 -36 -18 -56 -49 -86 -22 -21 -40 -45 -40 -53 0 -9 -17 -40 -37 -69
-20 -30 -57 -99 -83 -154 -67 -148 -108 -215 -131 -215 -27 0 -46 37 -52 101
-8 85 -123 305 -189 363 -66 58 -187 126 -246 139 -36 7 -63 24 -118 73 -39
35 -75 64 -80 64 -5 0 -72 31 -149 70 -77 39 -158 73 -180 77 -22 3 -72 21
-110 40 -44 21 -108 41 -170 53 -55 10 -149 28 -210 39 -60 11 -145 34 -189
51 -140 55 -396 83 -771 82 -85 0 -151 -8 -293 -36 -101 -20 -201 -36 -222
-36 -31 0 -43 -5 -56 -25 -10 -16 -26 -25 -43 -25 -95 -1 -284 -73 -389 -150
-109 -79 -133 -288 -49 -415 39 -58 210 -239 242 -257 31 -17 50 -35 70 -68 5
-9 27 -40 48 -68 33 -45 45 -53 105 -71 42 -13 71 -27 77 -40 26 -51 76 -129
93 -144 23 -21 323 -139 441 -173 47 -14 151 -36 231 -50 80 -13 163 -29 185
-34 22 -5 61 -10 86 -10 26 0 66 -9 90 -19 24 -11 95 -29 158 -41 63 -12 128
-28 143 -36 52 -27 124 -34 231 -23 81 8 124 7 217 -5 151 -21 654 -47 750
-39 84 6 150 -12 150 -43 0 -9 8 -31 19 -48 12 -20 21 -59 24 -111 3 -44 21
-143 40 -220 35 -145 56 -350 42 -413 -6 -29 -13 -33 -113 -66 -135 -45 -210
-61 -342 -77 -113 -13 -279 -7 -390 14 -48 9 -183 11 -515 6 -497 -6 -505 -7
-602 -72 -26 -18 -68 -38 -93 -45 -68 -20 -117 -57 -154 -115 -43 -67 -138
-157 -166 -157 -39 0 -133 -31 -205 -68 -48 -25 -95 -61 -151 -117 -68 -68
-90 -99 -136 -190 -30 -61 -67 -127 -82 -149 -57 -84 -58 -163 -5 -331 30 -98
31 -102 24 -230 -4 -71 -9 -152 -9 -180 -1 -27 -14 -87 -29 -133 -15 -46 -27
-93 -27 -106 0 -12 -5 -27 -11 -33 -14 -14 -27 -110 -35 -254 -8 -132 1 -167
96 -360 78 -160 82 -174 110 -423 12 -101 37 -254 60 -350 69 -301 81 -383 90
-631 4 -126 12 -243 18 -260 6 -19 6 -93 0 -200 -13 -228 -4 -632 17 -764 9
-57 25 -121 35 -142 11 -21 20 -46 20 -56 0 -30 64 -154 113 -218 25 -33 105
-121 178 -196 138 -139 197 -181 299 -210 25 -7 59 -23 77 -36 17 -13 90 -42
161 -63 201 -61 239 -78 300 -134 44 -40 68 -88 87 -174 9 -39 23 -76 31 -83
20 -17 18 -45 -15 -150 -38 -125 -45 -180 -31 -239 11 -45 10 -52 -14 -93 -15
-25 -42 -89 -60 -143 -94 -277 -89 -269 -146 -269 -62 -1 -70 -8 -69 -63 1
-28 -28 -171 -70 -347 -69 -289 -74 -305 -143 -449 -63 -133 -72 -157 -76
-222 -4 -59 0 -86 18 -138 l23 -64 -21 -36 c-11 -19 -32 -66 -45 -104 -23 -63
-34 -117 -82 -422 -10 -58 -30 -143 -47 -190 -16 -47 -38 -114 -50 -150 -11
-36 -29 -88 -39 -115 -10 -28 -19 -74 -19 -102 0 -29 -9 -81 -19 -115 -11 -35
-36 -148 -56 -253 -20 -104 -43 -209 -50 -232 -8 -23 -24 -96 -35 -162 -11
-67 -24 -131 -29 -144 -5 -13 -15 -68 -21 -123 -6 -54 -42 -225 -80 -379 -80
-324 -116 -499 -171 -824 -45 -272 -47 -309 -17 -362 31 -55 131 -124 181
-124 46 0 77 31 77 74 0 31 49 84 93 100 47 18 75 13 114 -23 89 -79 161 -95
497 -106 342 -11 514 -36 860 -125 164 -42 394 -80 601 -100 88 -8 184 -20
212 -27 48 -11 56 -10 92 10 21 12 51 22 65 22 43 0 95 -27 113 -58 22 -38 44
-51 102 -62 25 -5 73 -19 106 -31 52 -19 66 -20 104 -10 24 6 45 10 46 9 1 -2
10 -40 19 -86 21 -104 33 -130 67 -148 36 -18 64 -18 148 2 93 21 105 36 107
132 2 77 6 185 25 637 12 292 33 554 60 738 11 77 17 147 14 157 -3 10 -1 38
4 62 17 76 33 302 41 608 5 174 14 336 23 395 9 55 20 174 26 265 l10 164 35
31 c19 16 39 39 45 51 5 11 26 128 45 260 41 276 59 344 92 344 27 0 71 34 80
63 4 12 21 51 38 87 24 52 31 78 31 130 0 36 -6 80 -14 98 -12 29 -12 37 4 72
20 45 15 70 -15 70 -43 0 -60 18 -60 65 0 37 -5 47 -30 67 -30 23 -31 26 -20
69 5 24 13 96 16 159 3 63 12 155 20 204 19 108 9 161 -41 225 -20 25 -35 55
-35 70 0 14 13 75 30 135 16 59 32 140 36 180 4 39 18 100 31 136 37 99 33
148 -18 221 -9 12 -6 30 14 80 43 107 77 238 93 354 8 61 24 141 36 179 11 40
23 120 28 190 6 97 16 149 50 266 24 80 49 154 56 165 8 11 14 46 14 80 1 37
6 67 15 79 9 12 15 42 15 75 0 31 7 110 15 176 8 65 15 158 15 206 0 75 3 88
18 93 9 3 114 21 232 41 444 74 606 130 750 262 31 28 69 77 85 107 17 31 37
69 45 84 11 21 16 93 20 352 4 221 10 334 18 353 13 30 6 53 -22 77 -21 17
-20 59 5 139 11 38 30 140 43 227 21 145 23 190 21 511 l-3 353 -25 52 c-17
36 -26 70 -26 106 0 60 -1 66 -47 184 -19 48 -39 119 -44 158 -19 130 17 196
136 250 38 17 69 39 80 56 10 16 36 48 57 72 54 61 83 129 112 268 40 192 55
300 61 449 7 147 -9 438 -27 528 -16 74 -53 148 -102 204 -24 26 -58 72 -76
100 -102 162 -266 240 -591 279 -74 9 -169 27 -210 40 -41 13 -96 24 -122 24
-26 0 -118 15 -205 34 -212 46 -377 65 -718 81 -66 3 -169 15 -230 27 -140 26
-216 25 -338 -6 -54 -14 -104 -23 -112 -19 -9 3 -18 16 -21 30 -6 23 -9 24
-54 18 -30 -4 -50 -3 -55 4 -9 16 -125 547 -125 575 0 13 8 34 18 46 l18 22
129 -17 c124 -16 200 -14 253 6 18 7 30 4 49 -11 30 -24 51 -24 158 -6 44 8
163 17 265 21 236 8 314 18 477 61 248 65 304 92 379 179 29 34 58 56 76 60
16 4 44 19 61 34 18 15 68 51 113 79 81 52 204 169 204 194 0 7 48 61 106 118
180 179 254 294 338 525 20 55 51 130 67 168 36 79 60 205 58 297 -1 36 5 111
12 168 10 82 10 128 1 230 -18 191 -35 232 -96 232 -17 0 -42 7 -56 15 -85 49
-104 55 -195 53 -49 -1 -126 -4 -170 -8z m141 -531 c11 -149 10 -163 -7 -197
-11 -20 -19 -50 -19 -67 0 -16 -13 -58 -30 -93 -16 -35 -40 -96 -51 -135 -12
-40 -30 -81 -39 -92 -10 -11 -21 -31 -25 -45 -4 -14 -16 -41 -25 -60 -26 -51
-236 -274 -296 -314 -60 -41 -93 -79 -101 -118 -7 -37 -84 -97 -278 -220 -171
-108 -202 -122 -244 -107 -22 8 -41 6 -87 -11 -117 -41 -268 -62 -504 -71
-124 -5 -254 -11 -290 -15 -71 -7 -83 -1 -95 47 -5 20 -2 27 18 36 13 6 45 29
71 52 26 23 52 41 58 41 6 0 41 31 78 69 51 53 90 81 156 114 130 66 295 184
423 303 42 39 120 103 174 143 54 39 130 102 170 140 39 37 101 85 137 106 36
22 81 53 100 71 19 17 45 34 57 38 13 4 31 21 40 38 10 16 36 39 58 50 68 35
120 75 223 171 55 50 119 104 143 120 90 56 108 73 124 112 19 46 35 68 44 60
3 -4 11 -78 17 -166z m-622 102 c14 -16 15 -20 2 -30 -8 -7 -26 -32 -40 -55
-28 -48 -148 -144 -342 -273 -66 -45 -165 -123 -220 -175 -201 -189 -335 -301
-459 -383 -32 -22 -91 -70 -130 -106 -38 -36 -84 -73 -101 -82 -17 -9 -46 -33
-64 -53 -23 -27 -51 -44 -95 -59 -35 -11 -82 -34 -105 -50 -48 -34 -110 -109
-110 -135 0 -10 -7 -20 -15 -24 -8 -3 -15 -12 -15 -20 0 -8 -15 -34 -33 -58
-19 -24 -32 -48 -31 -53 4 -14 -54 -58 -66 -50 -5 3 -10 14 -10 24 0 23 39 73
50 66 5 -3 12 4 15 16 4 11 16 30 26 40 11 11 19 33 19 53 0 24 10 46 35 76
19 23 35 47 35 54 0 7 52 64 116 127 112 110 174 193 174 233 0 11 55 75 128
150 160 163 242 256 242 272 0 7 20 22 43 32 29 13 59 39 87 74 42 54 47 57
324 188 154 73 310 148 346 168 95 52 166 64 194 33z m-3849 -485 c82 -14 175
-27 207 -27 38 -1 58 -6 58 -14 0 -28 43 -44 197 -74 90 -17 193 -41 229 -52
48 -15 79 -19 114 -14 45 6 48 5 54 -19 7 -27 108 -95 284 -190 53 -28 116
-72 145 -100 46 -47 147 -189 147 -210 0 -10 -55 -1 -143 26 -73 22 -130 20
-155 -6 -14 -13 -19 -13 -44 5 -47 34 -139 67 -285 103 -76 18 -192 55 -258
81 -66 27 -203 75 -305 109 l-185 60 -212 1 c-186 0 -214 2 -225 17 -15 19
-158 71 -273 99 -103 25 -258 35 -310 20 -35 -9 -42 -8 -61 10 -13 12 -44 25
-71 30 -26 5 -57 18 -68 30 -20 20 -20 20 -1 34 10 8 42 19 71 25 29 6 61 20
70 30 14 15 22 17 36 9 22 -11 190 2 399 31 181 26 380 21 585 -14z m-825
-487 c63 -17 151 -43 195 -56 93 -28 189 -39 225 -25 18 7 33 6 55 -6 19 -10
75 -18 155 -22 94 -5 136 -12 170 -28 25 -11 96 -27 158 -36 63 -9 126 -22
140 -30 60 -33 90 -44 143 -54 31 -6 110 -31 175 -57 65 -25 139 -48 164 -52
26 -3 73 -22 113 -45 116 -67 188 -90 317 -98 108 -6 120 -9 198 -49 45 -22
82 -43 82 -46 0 -2 -32 -14 -72 -26 -52 -16 -73 -19 -76 -10 -11 32 -36 38
-218 55 -561 52 -1070 120 -1248 166 -197 51 -480 157 -581 218 -60 36 -245
212 -245 232 0 6 8 9 18 6 9 -2 69 -19 132 -37z m3239 -1958 c7 -5 10 -14 7
-20 -5 -8 11 -11 53 -11 50 0 62 3 71 20 14 25 59 26 158 3 61 -14 80 -15 118
-5 54 15 167 15 384 2 253 -16 395 -36 435 -60 25 -16 61 -23 137 -30 171 -14
293 -49 406 -116 31 -18 33 -18 63 -1 17 9 39 17 48 17 28 0 69 -37 76 -68 6
-31 -45 -256 -62 -273 -8 -8 -31 10 -83 65 -114 119 -226 163 -351 137 -30 -6
-94 -31 -144 -56 l-90 -45 -110 21 c-60 11 -173 38 -250 59 -246 68 -378 76
-421 27 -12 -14 -24 -31 -26 -37 -2 -8 -29 -3 -83 15 -116 40 -245 34 -411
-16 -42 -12 -71 -11 -80 3 -17 28 -22 118 -9 146 8 16 15 65 16 114 l2 87 36
14 c41 17 90 21 110 8z m-654 -107 c22 -7 61 -18 86 -25 l46 -11 7 -91 c4 -51
9 -112 12 -135 8 -55 -2 -66 -46 -50 -26 9 -51 8 -109 -2 -42 -7 -122 -13
-178 -14 -89 -1 -105 -4 -130 -24 -70 -56 -67 -55 -120 -37 -71 23 -365 6
-507 -30 -54 -13 -151 -29 -215 -35 -64 -5 -148 -19 -188 -30 -103 -28 -419
-191 -485 -249 -81 -72 -170 -99 -225 -68 -44 24 -163 149 -163 171 0 56 119
168 189 180 47 7 61 23 102 118 l34 78 47 0 c43 0 50 4 78 39 37 45 156 101
217 101 21 0 65 8 98 18 54 16 81 18 255 10 107 -4 337 -10 511 -12 173 -2
325 -6 337 -10 35 -12 88 9 161 63 76 56 109 73 131 64 8 -3 33 -12 55 -19z
m2269 -446 c14 -23 -4 -72 -27 -76 -26 -5 -47 16 -47 47 0 49 49 68 74 29z
m686 -168 c0 -21 -9 -62 -20 -91 -19 -47 -20 -66 -15 -206 6 -149 5 -159 -25
-273 -16 -65 -30 -128 -30 -140 0 -26 -70 -130 -106 -159 -15 -12 -45 -26 -68
-32 -22 -6 -50 -15 -61 -20 -11 -4 -83 -13 -160 -19 -159 -13 -289 -30 -453
-59 -113 -21 -152 -34 -152 -51 0 -5 -21 -21 -47 -35 -27 -14 -104 -66 -173
-115 -69 -49 -129 -89 -135 -90 -25 0 -177 240 -226 358 -33 80 -65 199 -56
208 3 3 56 -15 119 -40 224 -89 453 -131 585 -107 154 28 240 124 175 194 -42
45 -18 73 49 58 82 -18 254 -41 305 -41 63 0 84 16 122 90 l27 55 60 6 c121
11 135 37 129 232 -2 75 -5 141 -7 145 -4 12 81 140 105 156 40 28 58 21 58
-24z m-3024 -38 c-22 -5 -30 3 -21 18 5 8 11 7 22 -2 15 -12 14 -13 -1 -16z
m-2448 -233 l83 -60 68 7 c55 5 69 4 74 -9 9 -25 124 -107 149 -107 14 0 49
-13 79 -29 30 -16 106 -48 169 -71 63 -24 118 -49 122 -56 5 -6 16 -10 27 -7
25 6 109 -38 148 -79 43 -45 63 -96 63 -164 l0 -56 -45 40 c-82 72 -325 144
-383 113 -11 -6 -26 -26 -32 -46 -9 -28 -8 -40 4 -67 17 -35 147 -160 225
-216 53 -38 70 -64 71 -109 0 -39 -6 -41 -137 -35 -115 5 -179 -7 -236 -44
-24 -16 -45 -23 -57 -19 -11 4 -43 33 -72 67 -61 69 -92 88 -145 88 -43 0
-103 -32 -103 -55 0 -8 14 -47 32 -86 35 -79 32 -102 -15 -107 -21 -3 -31 4
-47 30 -10 18 -35 46 -55 61 -49 39 -68 79 -62 136 8 75 37 233 48 252 14 27
11 76 -8 152 -16 63 -16 70 -2 96 14 25 15 32 3 61 -8 18 -12 41 -9 51 10 29
-11 86 -55 155 -63 95 -65 174 -6 174 12 0 59 -27 104 -61z m5123 18 c38 -25
54 -77 24 -77 -8 0 -45 -29 -82 -65 -72 -71 -126 -95 -212 -95 -79 1 -178 64
-169 108 2 9 34 35 73 59 51 32 80 43 110 43 22 0 65 11 95 24 72 31 118 32
161 3z m-1078 -247 c5 -18 14 -20 76 -20 38 0 81 -5 94 -11 22 -10 87 -105 87
-127 0 -6 -14 -15 -31 -21 -35 -12 -90 -2 -144 27 -16 9 -52 19 -79 22 -35 3
-52 11 -60 25 -18 33 -51 50 -40 20 5 -12 -2 -15 -33 -15 -47 0 -70 15 -79 53
-6 28 -6 28 37 26 24 -2 71 -1 104 1 l60 3 -65 7 c-59 5 -63 7 -40 17 14 7 44
12 66 12 34 1 43 -3 47 -19z m-613 -80 c18 -18 20 -29 15 -95 -5 -77 14 -145
40 -145 6 0 17 -27 23 -60 14 -78 50 -157 94 -206 43 -48 51 -70 37 -96 -15
-28 -50 -19 -147 37 -121 69 -316 159 -432 199 -58 20 -109 42 -115 49 -5 7
-26 18 -45 26 -104 40 -113 42 -139 32 -14 -5 -49 -12 -78 -15 -66 -6 -68 -7
-98 -66 -14 -27 -34 -55 -46 -63 -18 -13 -19 -19 -10 -52 13 -47 7 -49 -122
-42 -106 5 -326 50 -527 108 -210 61 -272 71 -430 67 l-145 -3 -5 47 c-3 27
-11 53 -18 60 -35 35 4 88 64 88 20 0 44 10 62 25 17 14 35 25 42 25 7 0 25
-11 42 -25 35 -29 46 -30 90 -9 33 15 35 15 213 -56 l180 -72 53 12 c32 7 52
16 49 23 -2 7 -33 28 -69 47 -105 56 -133 91 -86 109 15 5 32 2 53 -9 16 -10
52 -21 79 -25 27 -4 66 -16 87 -27 30 -15 54 -19 116 -17 48 2 123 -6 197 -19
172 -32 186 -30 334 31 227 96 304 116 477 127 66 4 126 8 133 8 6 1 21 -7 32
-18z m-51 -684 l104 -53 -65 -7 c-74 -7 -118 -1 -171 26 -44 22 -53 38 -37 67
17 33 55 25 169 -33z m1614 -51 c16 -16 42 -96 94 -290 43 -165 78 -524 57
-584 -8 -20 -13 -83 -14 -143 0 -59 -5 -119 -11 -135 -11 -27 -11 -27 -19 -7
-5 12 -25 100 -45 195 -64 311 -139 547 -208 656 -47 75 -146 142 -209 143
-19 0 -33 -8 -45 -27 -16 -24 -18 -52 -18 -218 0 -104 -4 -201 -8 -214 l-9
-23 -19 32 c-24 38 -72 60 -136 60 -26 1 -59 7 -73 15 -37 21 -58 18 -77 -12
-24 -37 -20 -265 7 -373 38 -153 38 -203 -1 -193 -11 3 -33 24 -48 47 -16 22
-45 58 -64 79 -48 50 -106 170 -114 234 -5 49 -1 63 68 223 l74 171 116 104
c158 141 236 189 357 222 193 51 318 65 345 38z m-3807 -140 c67 -20 163 -121
137 -145 -15 -15 -105 9 -203 54 -52 24 -108 47 -125 51 -28 6 -28 7 -10 18
24 14 102 35 131 36 11 1 43 -6 70 -14z m2199 -210 c36 -37 61 -55 77 -55 13
0 33 -6 44 -14 18 -14 18 -15 -10 -45 -33 -35 -39 -33 -110 28 -25 22 -62 45
-83 52 -40 13 -82 39 -83 52 0 4 10 7 23 7 13 0 32 7 43 15 31 23 44 18 99
-40z m-674 -84 c86 -32 223 -80 305 -106 156 -49 264 -92 264 -106 0 -12 -125
-22 -187 -14 -32 3 -111 24 -176 46 -64 21 -124 39 -131 39 -8 0 -28 13 -44
30 -17 16 -51 35 -77 42 -41 11 -53 21 -87 70 -21 32 -35 58 -31 58 4 0 78
-27 164 -59z m-2513 -417 c32 -65 38 -144 18 -244 -12 -58 -16 -110 -12 -174
3 -54 2 -75 -3 -51 -4 22 -14 53 -23 69 -11 22 -13 38 -6 62 6 23 4 53 -7 99
-23 101 -31 231 -15 260 7 14 16 25 20 25 3 0 16 -21 28 -46z m402 -49 c47 -8
114 -15 150 -15 78 0 119 -21 178 -94 38 -46 40 -52 44 -130 2 -44 1 -94 -4
-110 -10 -40 -46 -76 -75 -76 -36 0 -73 -29 -73 -56 0 -20 -5 -24 -30 -24 -24
0 -35 7 -48 31 -9 17 -39 68 -66 113 -84 137 -119 208 -138 276 -11 36 -22 73
-25 83 -3 9 -4 17 -2 17 2 0 42 -7 89 -15z m4214 -56 c34 -16 53 -69 71 -199
33 -231 29 -567 -8 -624 -8 -12 -20 -38 -26 -59 -24 -71 -82 -69 -99 5 -5 24
-48 162 -96 308 -47 146 -86 279 -86 297 0 17 -7 38 -15 47 -8 8 -15 31 -15
51 0 19 -7 46 -16 60 -19 29 -15 84 8 98 11 8 32 7 71 -2 49 -12 59 -12 108 7
64 25 70 25 103 11z m-1968 -71 c77 -83 69 -174 -10 -117 -50 37 -109 107
-103 123 3 8 21 16 39 19 18 2 35 5 39 5 3 1 19 -13 35 -30z m654 -97 c24 -7
24 -8 -18 -30 -37 -19 -43 -19 -48 -6 -15 38 10 52 66 36z m-2833 -345 c19
-47 45 -88 79 -125 66 -72 69 -80 89 -187 9 -49 23 -103 30 -121 10 -24 11
-35 1 -48 -11 -16 -46 -12 -46 5 0 4 -12 12 -28 18 -25 8 -30 18 -51 108 -17
68 -34 112 -56 143 -55 78 -106 234 -105 320 1 26 1 26 30 -9 17 -18 42 -65
57 -104z m2626 99 c9 -8 21 -32 28 -52 15 -47 84 -171 111 -200 20 -21 19 -53
-2 -53 -5 0 -32 16 -58 34 -26 19 -60 39 -74 45 -20 8 -30 21 -38 53 -6 24
-18 66 -26 94 -8 28 -14 58 -14 67 0 28 49 36 73 12z m-975 -32 c38 -42 205
-305 227 -357 35 -82 36 -226 2 -226 -5 0 -28 19 -52 43 -36 37 -47 59 -84
176 -24 74 -67 188 -97 254 -30 66 -54 126 -54 134 0 23 23 14 58 -24z m-2058
-144 c0 -6 -4 -7 -10 -4 -5 3 -10 11 -10 16 0 6 5 7 10 4 6 -3 10 -11 10 -16z
m1142 -36 c26 -27 75 -97 110 -158 35 -60 72 -122 82 -137 21 -33 13 -38 -62
-45 -109 -9 -212 72 -248 194 -27 95 -2 193 49 193 14 0 41 -19 69 -47z
m-1048 -223 c49 -53 137 -204 168 -287 18 -49 21 -82 23 -208 1 -83 6 -159 12
-169 6 -11 7 -37 1 -69 -14 -93 15 -197 77 -273 63 -76 281 -202 307 -176 8 8
16 4 31 -15 23 -29 74 -53 112 -53 14 0 34 -9 44 -19 20 -20 227 -73 426 -110
61 -11 209 -38 330 -61 333 -61 407 -71 573 -77 l152 -6 0 26 c0 64 24 84 130
108 92 20 156 48 188 82 16 17 48 44 69 59 22 15 52 50 68 80 28 50 30 59 30
168 0 134 -11 175 -103 373 -42 91 -66 132 -83 140 -30 16 -34 43 -15 102 9
25 16 70 16 99 0 69 23 133 63 174 61 64 114 78 195 53 104 -33 171 -112 242
-286 99 -239 151 -321 236 -371 24 -14 44 -30 44 -35 0 -6 29 -41 64 -78 123
-131 156 -237 156 -508 0 -92 5 -198 10 -236 14 -97 -10 -253 -51 -325 -22
-38 -34 -81 -45 -150 -9 -54 -27 -146 -41 -206 -34 -151 -70 -406 -78 -561 -9
-158 -36 -301 -69 -358 -47 -81 -57 -133 -60 -292 -4 -181 -33 -334 -72 -376
-13 -14 -24 -30 -24 -37 0 -16 -6 -15 -34 3 -13 9 -52 20 -87 25 -125 19 -127
20 -132 41 -5 18 -11 20 -36 14 -17 -4 -103 1 -191 10 -121 13 -173 15 -217 7
-91 -16 -371 17 -488 58 -197 67 -299 93 -562 137 -33 6 -123 -30 -123 -48 0
-6 -10 2 -23 17 -21 25 -28 26 -104 25 -65 -1 -85 2 -104 18 -22 18 -22 21
-11 72 7 30 26 90 43 133 22 57 30 93 28 130 -2 44 3 62 35 119 29 51 39 82
43 130 3 41 14 81 33 117 38 73 51 159 39 247 -11 78 -23 120 -43 142 -7 9
-16 39 -19 68 -3 28 -15 69 -26 90 -21 40 -237 249 -305 296 -23 15 -111 49
-196 77 -298 95 -499 220 -554 344 -13 28 -57 101 -98 162 -96 141 -116 221
-72 289 8 13 18 86 25 190 21 306 -3 882 -46 1115 -20 110 -6 107 28 -6 24
-82 37 -107 71 -144z m4061 -8 c6 -4 23 -32 38 -62 15 -30 49 -78 75 -106 39
-41 57 -52 92 -58 24 -4 50 -12 57 -18 33 -27 2 -100 -85 -196 l-39 -44 -43
119 c-24 65 -63 169 -87 231 -23 63 -43 120 -43 128 0 15 18 18 35 6z m-420
-158 c9 -4 29 -32 45 -64 41 -82 71 -102 182 -125 44 -8 87 -53 125 -129 19
-39 42 -79 51 -89 14 -15 14 -26 4 -74 -21 -100 -82 -191 -143 -212 -32 -11
-39 -5 -62 51 -21 49 -84 109 -172 160 -77 46 -111 77 -137 126 -14 25 -23 32
-48 32 -26 0 -30 4 -30 28 0 15 -14 54 -30 87 -32 64 -37 112 -16 160 11 28
18 31 87 41 94 14 123 16 144 8z m-2350 -107 l109 -22 82 -120 c104 -153 126
-170 213 -170 53 0 78 6 126 29 33 17 65 30 70 29 55 -3 274 -60 322 -83 66
-30 108 -78 99 -114 -3 -11 11 -44 33 -79 34 -52 37 -63 28 -88 -8 -21 -8 -34
2 -52 13 -24 10 -28 -64 -98 -111 -106 -102 -102 -177 -80 -129 39 -189 35
-256 -16 -31 -23 -43 -25 -173 -30 l-141 -5 -31 30 c-39 36 -88 45 -142 26
-56 -19 -82 -17 -140 10 -37 17 -55 20 -67 13 -12 -8 -36 -5 -90 11 -41 12
-101 24 -134 28 -41 5 -67 13 -84 29 -14 13 -43 27 -64 31 -44 8 -195 85 -218
111 -13 15 -16 65 -21 280 -6 244 -5 264 12 285 l19 22 6 -44 c4 -25 14 -67
23 -95 18 -58 130 -316 143 -329 5 -5 43 -12 85 -16 69 -7 80 -11 123 -47 26
-22 55 -54 64 -73 11 -21 32 -39 58 -51 23 -11 55 -30 72 -44 26 -22 39 -25
110 -25 89 0 107 10 108 63 0 43 -13 61 -99 127 -69 54 -82 68 -97 112 -10 31
-36 72 -66 105 -27 30 -58 74 -67 97 -39 89 -54 238 -28 265 15 16 99 9 252
-22z m3414 -76 c12 -8 10 -28 -13 -128 -35 -148 -53 -206 -82 -264 -25 -51
-46 -64 -74 -49 -10 6 -29 10 -41 10 -22 0 -22 1 8 33 45 48 53 69 64 170 11
111 33 191 59 217 21 21 56 26 79 11z m-3724 -3464 c14 -3 10 -5 -11 -6 -17 0
-37 5 -43 12 -15 19 -1 30 18 13 9 -8 25 -16 36 -19z m1765 -223 c58 -4 114
-10 125 -14 11 -4 32 -4 47 1 16 4 30 3 33 -2 4 -5 18 -9 33 -9 24 -1 82 -39
82 -55 0 -18 -443 18 -476 40 -13 8 -24 19 -24 24 0 12 42 30 60 26 8 -2 62
-7 120 -11z m-406 -702 c-24 -38 -57 0 -39 46 5 14 9 13 28 -6 17 -18 19 -26
11 -40z m-1734 -2959 c-1 -16 -7 -39 -15 -53 -8 -14 -14 -43 -15 -65 0 -44
-14 -65 -42 -65 -23 0 -23 27 -2 52 10 10 18 37 19 62 3 68 55 134 55 69z
m794 -380 l29 -36 -38 6 c-65 11 -105 67 -47 67 19 0 35 -10 56 -37z m1366
-194 c16 -29 6 -46 -36 -64 -20 -8 -38 -14 -39 -13 -25 33 -23 44 8 70 39 33
53 35 67 7z"/>
<path d="M14012 13168 c5 -18 12 -41 15 -51 3 -9 0 -24 -7 -32 -18 -22 -5 -31
65 -49 63 -17 207 -20 240 -6 13 6 15 9 5 9 -18 1 -113 50 -225 115 -97 56
-107 58 -93 14z"/>
<path d="M41871 17429 c-124 -12 -242 -37 -376 -80 -130 -43 -329 -138 -412
-197 -110 -79 -221 -164 -289 -222 -39 -33 -76 -60 -81 -60 -13 0 -83 -81 -83
-95 0 -6 -16 -27 -36 -46 -66 -63 -187 -213 -250 -309 -150 -232 -231 -458
-264 -745 -7 -55 -13 -235 -14 -400 -1 -276 1 -303 18 -335 10 -19 24 -42 32
-50 19 -22 33 -93 49 -257 8 -80 24 -178 36 -217 12 -39 31 -100 42 -136 10
-36 50 -140 88 -232 57 -137 69 -177 69 -222 0 -30 7 -84 15 -121 12 -51 13
-74 5 -106 -6 -23 -13 -97 -15 -166 -3 -101 0 -137 17 -196 33 -120 30 -138
-49 -299 -39 -79 -100 -185 -134 -236 -35 -52 -76 -116 -90 -143 -14 -27 -31
-55 -37 -61 -7 -7 -12 -25 -12 -41 0 -19 -13 -45 -40 -77 -53 -63 -62 -92 -55
-165 5 -46 3 -71 -9 -100 -23 -54 -35 -66 -150 -143 -122 -82 -225 -176 -257
-237 -13 -25 -35 -49 -50 -55 -42 -18 -179 -249 -352 -597 -53 -105 -101 -194
-106 -197 -5 -4 -12 -21 -16 -39 -4 -17 -26 -79 -50 -137 -24 -58 -56 -148
-70 -200 -15 -52 -40 -122 -56 -154 -19 -38 -29 -74 -29 -103 0 -25 -11 -77
-25 -116 -13 -40 -29 -112 -34 -162 -5 -55 -21 -124 -40 -178 -18 -49 -38
-136 -47 -195 -8 -59 -23 -141 -34 -182 -11 -41 -26 -109 -35 -150 -27 -132
-75 -188 -179 -210 -90 -18 -103 -47 -126 -270 -7 -58 -20 -130 -30 -160 -10
-30 -26 -93 -35 -140 -9 -47 -30 -132 -46 -190 -16 -58 -34 -136 -40 -175 -6
-38 -19 -89 -30 -112 -10 -23 -24 -86 -30 -140 -6 -53 -17 -115 -26 -138 -8
-22 -21 -85 -28 -140 -7 -55 -17 -112 -23 -126 -5 -14 -15 -61 -22 -105 -23
-159 -122 -630 -141 -670 -10 -23 -19 -59 -19 -81 0 -22 -9 -60 -19 -84 -18
-40 -41 -132 -190 -744 -28 -115 -82 -309 -121 -430 -67 -208 -81 -267 -130
-530 -40 -209 -101 -441 -185 -695 -106 -322 -255 -832 -255 -873 0 -16 -6
-53 -14 -81 -25 -90 -36 -149 -45 -251 -5 -55 -13 -110 -16 -122 -6 -17 0 -30
23 -53 17 -16 40 -30 51 -30 11 0 55 -11 98 -25 l78 -24 25 23 c14 12 37 30
52 39 15 10 31 30 34 45 3 15 22 70 41 122 20 52 57 183 84 290 37 148 60 217
94 285 36 74 112 278 200 540 7 22 27 114 44 205 37 195 62 281 98 333 19 27
28 55 31 95 3 42 12 68 34 98 25 35 31 55 38 138 12 125 22 158 66 231 77 127
144 276 144 321 0 27 10 61 25 90 14 27 25 64 25 86 0 21 11 65 25 98 14 32
38 126 54 207 38 192 207 896 227 948 9 22 22 72 30 110 7 39 20 95 29 125 8
30 15 82 15 116 0 47 6 72 24 105 29 52 56 148 56 200 0 19 9 71 20 115 27
104 48 237 56 354 4 68 16 124 40 195 18 55 40 147 48 205 16 107 77 357 97
396 20 40 54 47 133 28 39 -9 85 -23 103 -31 17 -7 51 -13 76 -13 28 0 49 -6
58 -16 23 -27 68 -45 135 -51 51 -5 73 -12 101 -34 27 -22 47 -29 78 -29 32 0
75 -16 175 -65 203 -100 315 -128 786 -195 155 -21 323 -49 375 -60 84 -19
259 -68 267 -75 2 -1 -6 -38 -17 -80 -15 -54 -26 -152 -36 -314 -9 -130 -23
-288 -31 -351 -8 -63 -19 -209 -24 -325 -5 -130 -15 -231 -24 -265 -26 -95
-55 -275 -91 -570 -67 -554 -124 -931 -147 -977 -20 -38 -21 -46 -10 -91 11
-42 10 -62 -7 -148 -11 -54 -27 -193 -36 -309 -8 -115 -26 -271 -40 -345 -13
-74 -30 -166 -36 -205 -7 -42 -14 -287 -19 -620 -4 -302 -11 -562 -15 -577 -5
-20 -2 -30 12 -43 24 -20 237 -106 241 -97 1 4 8 16 15 28 94 161 107 221 107
483 0 463 33 821 165 1796 82 609 126 881 220 1357 25 125 45 250 45 277 0 28
13 89 30 142 41 124 77 305 95 480 9 79 43 275 75 436 33 160 60 309 60 331 0
49 -29 88 -73 97 -34 8 -47 20 -47 47 0 18 263 404 310 455 26 29 30 40 30 93
0 33 4 60 9 60 19 0 64 71 107 171 35 80 44 113 44 158 l0 56 84 24 c110 30
195 80 273 160 57 58 63 68 63 106 0 27 7 51 20 68 19 23 19 33 11 168 -9 166
-21 198 -82 229 -60 31 -60 45 3 103 33 31 68 76 86 112 32 65 82 220 82 254
0 12 -16 38 -35 58 -41 42 -54 93 -32 126 8 12 52 43 97 67 112 60 172 116
212 198 27 55 33 78 33 132 0 67 -20 130 -55 180 -12 17 -17 35 -13 49 4 16
-2 31 -23 52 -15 16 -33 28 -39 25 -13 -5 -15 2 -18 58 -2 35 2 42 28 55 103
52 133 76 173 135 64 95 86 151 86 226 0 71 -13 107 -70 176 -19 24 -38 62
-44 90 -6 27 -22 68 -35 90 -26 44 -115 130 -153 147 -12 6 -38 32 -57 58 -23
32 -66 68 -129 110 -53 35 -98 71 -102 81 -7 25 5 78 18 78 6 0 73 63 148 140
l137 140 55 0 c63 0 110 21 293 134 118 72 151 99 160 127 3 9 19 22 36 29 16
7 62 45 102 84 40 39 86 78 102 86 31 15 133 110 306 282 154 154 260 331 314
529 14 52 33 105 41 119 8 14 22 41 30 60 9 19 24 53 34 75 41 89 73 289 95
600 8 116 20 259 26 318 17 172 -7 339 -81 570 -17 53 -35 97 -40 97 -6 0 -10
8 -10 18 0 10 -14 40 -31 67 -17 27 -48 88 -69 136 -44 101 -89 170 -131 201
-17 13 -55 60 -85 105 -59 89 -96 124 -160 156 -33 16 -44 27 -48 52 -8 43
-41 71 -110 95 -32 11 -72 28 -90 39 -17 10 -69 33 -116 49 -146 52 -193 72
-250 111 -42 29 -76 42 -145 56 -66 14 -98 26 -122 46 -41 35 -68 43 -253 75
-137 24 -185 27 -410 29 -140 1 -293 -2 -339 -6z m657 -323 c15 -8 74 -26 132
-40 193 -47 372 -155 518 -311 82 -88 167 -198 212 -276 43 -73 87 -118 138
-140 27 -12 42 -25 42 -36 0 -28 41 -109 102 -203 79 -122 95 -156 127 -282
58 -226 78 -472 62 -748 -17 -283 -57 -476 -137 -649 -32 -70 -59 -104 -187
-241 -29 -31 -76 -83 -105 -118 -29 -34 -90 -90 -135 -124 -45 -34 -113 -92
-152 -129 -38 -37 -93 -78 -122 -93 -29 -14 -68 -39 -86 -56 -19 -16 -42 -30
-51 -30 -39 0 -163 -42 -224 -76 -161 -89 -263 -176 -317 -269 -16 -27 -56
-77 -87 -110 -32 -32 -58 -63 -58 -68 0 -20 -64 -89 -99 -107 -20 -10 -42 -30
-49 -44 -14 -31 -23 -32 -44 -8 -38 42 -39 58 -11 109 15 26 41 66 58 89 38
50 75 147 105 274 25 108 103 340 130 385 9 17 46 95 80 175 35 80 69 152 76
160 7 8 25 53 40 100 36 115 65 169 114 214 52 47 77 56 168 66 53 5 82 14
100 29 15 12 56 36 92 53 36 17 79 45 95 63 17 18 48 40 69 50 29 14 52 40 94
104 78 121 95 168 96 271 1 111 -28 175 -116 264 -87 86 -141 111 -243 111
-68 0 -88 -5 -133 -28 -30 -16 -73 -47 -96 -70 -23 -23 -63 -59 -88 -80 -60
-48 -131 -155 -169 -254 -17 -43 -47 -110 -66 -150 -19 -39 -32 -76 -29 -82 6
-10 -14 -15 -94 -24 -48 -6 -194 13 -201 25 -4 6 -35 12 -68 14 -76 4 -137 35
-165 84 -19 31 -21 54 -23 220 0 102 -5 233 -10 292 -10 114 -24 148 -72 176
-17 9 -43 45 -67 91 -59 115 -129 156 -284 168 -124 9 -191 -20 -232 -100 -11
-23 -44 -69 -73 -102 -65 -74 -73 -91 -86 -162 -6 -32 -19 -87 -30 -122 -12
-39 -19 -93 -19 -140 0 -137 46 -245 146 -341 92 -89 134 -134 139 -151 3 -8
33 -29 66 -45 73 -35 109 -80 109 -137 0 -49 -19 -125 -76 -299 -24 -75 -44
-146 -44 -157 0 -34 -79 -266 -132 -391 -62 -143 -88 -243 -88 -333 0 -66 -2
-71 -35 -104 -36 -36 -36 -36 -103 -30 -90 8 -135 23 -173 54 -56 48 -62 76
-65 299 -2 218 -8 256 -66 404 -26 64 -41 90 -65 105 -25 16 -32 29 -36 67 -3
27 -16 69 -28 95 -15 34 -23 81 -30 163 -9 124 -19 189 -45 288 -13 48 -14 66
-6 74 16 16 15 49 -3 75 -19 27 -52 165 -60 251 -13 131 43 559 97 751 23 84
49 141 121 271 50 91 104 175 118 188 15 12 46 51 68 87 22 35 53 70 68 77 15
7 45 37 67 66 24 32 46 52 58 52 33 0 146 65 290 168 75 53 150 105 168 115
17 9 37 30 43 46 9 23 27 35 109 70 70 29 112 41 147 41 27 0 85 7 128 16 55
12 143 17 299 19 164 3 238 8 285 19 35 9 65 19 68 21 7 7 10 6 39 -9z m30
-2068 c-16 -10 -20 -10 -37 1 -11 7 -10 13 4 35 l18 26 14 -26 c11 -22 11 -29
1 -36z m-764 -377 c-9 -10 -26 18 -18 30 5 9 9 8 14 -7 4 -10 6 -21 4 -23z
m49 -146 c20 -8 56 -15 81 -15 26 0 51 6 60 15 21 21 30 19 66 -15 18 -17 38
-29 44 -28 22 4 55 -13 61 -31 12 -39 -110 -318 -159 -364 -64 -61 -126 -237
-126 -356 0 -67 -20 -130 -76 -246 -34 -70 -67 -159 -91 -245 -31 -115 -42
-140 -70 -169 -33 -33 -35 -34 -103 -28 -121 10 -180 58 -180 147 0 23 22 110
49 193 184 565 295 939 310 1046 15 108 48 132 134 96z m-1018 -1601 c57 -6
73 -11 88 -31 30 -37 54 -47 88 -33 32 14 66 4 289 -83 103 -40 104 -40 80
-56 -14 -9 -47 -37 -75 -62 -27 -26 -73 -58 -101 -72 -28 -14 -54 -33 -58 -42
-5 -15 -9 -15 -39 4 -77 52 -175 93 -269 115 -154 37 -185 70 -154 166 11 32
15 64 10 82 l-6 30 38 -6 c22 -3 70 -9 109 -12z m1406 -450 c67 -9 133 -14
147 -11 17 3 40 -6 79 -34 30 -21 76 -45 101 -53 l47 -16 -3 -65 c-4 -73 11
-109 52 -125 28 -10 56 -66 56 -110 0 -22 -8 -38 -29 -56 -16 -14 -31 -38 -35
-58 -6 -30 -14 -37 -94 -74 -100 -46 -165 -69 -221 -78 -34 -5 -46 -2 -83 25
-24 17 -62 34 -84 37 -21 3 -62 17 -90 30 -28 14 -68 27 -90 30 -21 3 -57 12
-79 21 -29 11 -75 14 -170 13 -195 -3 -193 -3 -201 22 -4 13 -20 35 -35 49
-28 26 -29 32 -30 116 -2 146 14 177 149 291 29 24 55 41 59 39 5 -3 46 1 93
8 119 18 316 18 461 -1z m-1594 -85 c52 -28 135 -57 247 -88 100 -27 172 -52
177 -61 5 -8 22 -52 39 -97 17 -46 49 -109 71 -142 46 -69 50 -98 14 -107 -52
-13 -115 16 -192 87 -77 72 -145 109 -233 129 -30 6 -72 18 -93 26 -21 8 -73
14 -118 14 -129 0 -152 23 -114 116 13 32 27 83 31 112 l6 52 44 0 c31 0 64
-11 121 -41z m-32 -586 c70 -18 82 -19 111 -10 17 6 32 -3 71 -40 69 -65 96
-122 96 -198 0 -103 -53 -167 -173 -206 -36 -12 -74 -28 -85 -35 -15 -11 -72
-14 -250 -14 -299 0 -345 -13 -360 -101 -10 -60 0 -77 57 -94 28 -8 56 -19 62
-23 21 -17 110 -42 148 -42 22 0 85 -12 141 -26 85 -22 115 -26 184 -21 67 5
82 3 87 -9 3 -9 -12 -52 -34 -97 -46 -95 -65 -179 -55 -254 5 -45 14 -61 61
-113 30 -33 54 -69 54 -78 0 -41 209 -215 284 -237 52 -16 96 -49 96 -72 0 -8
-11 -35 -25 -62 -13 -27 -29 -69 -36 -94 -6 -26 -17 -51 -24 -57 -17 -14 -6
-54 30 -115 17 -30 25 -58 25 -90 0 -92 49 -153 140 -175 38 -9 58 -21 84 -51
18 -22 46 -44 62 -49 16 -5 62 -22 103 -39 70 -30 242 -71 294 -71 41 0 42
-19 4 -58 -40 -43 -69 -95 -62 -114 8 -22 -59 -131 -96 -155 -68 -44 -79 -54
-79 -71 0 -10 -23 -35 -51 -57 -93 -74 -158 -173 -159 -242 0 -23 -6 -33 -20
-38 -11 -3 -24 -14 -29 -24 -9 -17 -24 -15 -213 30 -241 58 -458 95 -623 108
-188 15 -328 49 -570 136 -102 37 -148 48 -214 52 -72 5 -91 11 -140 40 -73
44 -122 58 -294 84 -147 22 -172 32 -202 82 -30 51 -35 84 -19 145 9 31 22 92
29 135 8 42 21 87 30 99 8 13 15 32 15 43 0 12 4 25 9 31 16 15 51 182 51 238
0 68 67 366 87 388 8 9 19 45 23 80 9 71 36 155 56 179 8 8 14 24 14 34 0 28
86 268 127 353 20 43 43 77 56 83 25 11 93 99 113 145 7 18 15 58 17 91 4 55
11 69 86 181 45 67 86 122 93 122 35 0 173 153 204 226 15 36 57 67 82 61 9
-2 33 4 52 13 150 73 324 92 475 53z m1219 -239 c229 -58 268 -65 321 -60 86
9 84 9 155 -4 164 -29 171 -31 211 -67 27 -24 44 -51 54 -86 18 -61 19 -97 3
-97 -6 0 -43 -24 -83 -54 -39 -29 -90 -63 -113 -75 -93 -47 -392 -64 -534 -31
-54 13 -59 13 -86 -7 -27 -20 -28 -20 -64 -2 -20 10 -87 32 -148 49 -170 46
-174 49 -199 114 -51 137 -40 184 67 293 42 44 84 82 92 86 32 12 71 5 324
-59z m-536 -663 c69 -35 212 -65 197 -41 -3 6 5 10 19 10 14 0 28 -5 31 -10 4
-6 10 -8 15 -5 5 3 11 1 15 -5 4 -6 11 -7 17 -4 7 5 8 2 3 -6 -6 -10 -4 -12 7
-7 9 3 26 0 39 -7 13 -7 29 -14 34 -16 6 -3 9 -9 7 -16 -3 -15 106 -44 165
-44 27 0 90 -9 142 -20 52 -11 125 -20 164 -20 82 0 137 -21 137 -54 0 -40
-22 -101 -52 -142 -38 -53 -118 -114 -150 -114 -14 0 -38 -10 -54 -22 -22 -18
-39 -22 -74 -20 -25 2 -111 -6 -192 -17 -197 -28 -205 -27 -274 14 -32 19 -74
40 -94 45 -54 16 -297 50 -313 45 -16 -7 -123 102 -137 140 -5 14 -10 40 -10
56 0 47 50 182 74 199 30 22 187 79 219 79 15 1 45 -8 65 -18z m963 -869 c7
-19 6 -29 -7 -43 -23 -26 -43 -88 -44 -136 0 -24 -4 -43 -9 -43 -6 0 -30 -13
-54 -30 -64 -43 -121 -65 -264 -102 -165 -42 -304 -45 -395 -9 -32 12 -58 26
-58 30 0 5 -18 29 -40 54 -39 44 -41 48 -31 85 14 50 57 109 114 156 l45 36
101 -15 c199 -30 429 -16 560 34 54 21 69 17 82 -17z"/>
<path d="M46230 16801 c-19 -10 -107 -37 -195 -59 -88 -23 -200 -55 -249 -71
-48 -17 -138 -45 -200 -62 -136 -38 -242 -86 -315 -142 -72 -54 -80 -65 -81
-106 0 -44 60 -106 112 -116 27 -5 125 15 409 84 290 70 405 93 514 104 103
11 152 20 183 36 43 22 72 63 72 104 0 65 -128 233 -185 242 -18 3 -44 -2 -65
-14z"/>
<path d="M6637 5940 c-24 -19 -37 -47 -51 -113 -5 -21 -2 -29 11 -34 35 -12
53 -36 53 -70 0 -27 4 -33 20 -33 26 0 34 19 21 52 -7 18 -6 31 3 44 7 11 19
43 26 71 13 51 13 54 -10 78 -28 30 -40 31 -73 5z"/>
<path d="M8477 5225 c-55 -55 -71 -108 -64 -213 7 -120 8 -122 73 -122 44 0
55 4 65 22 17 31 19 196 3 235 -8 18 -14 43 -14 55 0 13 -7 31 -14 41 -13 16
-16 15 -49 -18z"/>
<path d="M6672 5168 c-16 -16 -15 -43 4 -79 8 -17 13 -37 10 -45 -8 -22 23
-92 45 -99 31 -10 57 -52 64 -104 5 -38 11 -50 27 -54 20 -6 21 -3 15 69 -3
45 -14 92 -26 117 -25 52 -26 57 -6 57 23 0 18 24 -12 60 -80 93 -96 103 -121
78z"/>
<path d="M8476 4725 c-15 -23 -14 -27 6 -62 28 -50 58 -83 75 -83 17 0 18 141
1 158 -21 21 -64 14 -82 -13z"/>
<path d="M8263 4695 c0 -7 6 -11 14 -8 7 3 13 6 13 8 0 2 -6 5 -13 8 -8 3 -14
-1 -14 -8z"/>
<path d="M6827 4333 c-4 -3 -7 -24 -7 -45 0 -26 -4 -38 -14 -38 -7 0 -19 -7
-26 -16 -22 -26 11 -188 44 -219 14 -13 26 -33 26 -44 0 -31 19 -35 46 -10 17
16 24 33 24 59 0 20 5 41 12 48 12 12 13 176 2 215 -3 9 -23 26 -44 37 -42 21
-53 24 -63 13z"/>
<path d="M8591 3484 c-27 -34 -25 -77 4 -112 5 -6 48 19 73 41 28 26 28 42 -3
72 -31 32 -48 31 -74 -1z"/>
<path d="M6914 3286 c-9 -22 12 -52 46 -66 45 -19 56 -2 30 44 -23 38 -65 50
-76 22z"/>
<path d="M7273 3263 c-8 -22 14 -87 37 -108 19 -18 58 -17 104 1 11 4 -7 -25
-43 -70 -54 -68 -61 -83 -61 -121 0 -26 -6 -50 -16 -59 -22 -23 -14 -47 26
-74 34 -23 55 -24 115 -7 19 6 21 1 23 -67 1 -46 -5 -100 -17 -148 -11 -41
-16 -79 -12 -83 4 -4 20 -10 35 -13 21 -3 26 -1 20 8 -6 10 -5 10 7 1 11 -9
19 -7 35 10 26 28 48 82 39 97 -4 6 -2 16 3 23 20 26 8 53 -21 48 -5 -1 -6 3
-2 8 3 6 11 8 18 5 8 -3 14 7 15 27 3 38 -43 96 -63 79 -7 -6 -11 0 -13 19 -1
18 4 31 14 35 9 3 12 11 8 18 -6 10 -5 10 8 0 12 -10 17 -10 27 1 6 8 8 17 4
20 -3 4 -1 7 6 7 9 0 12 25 9 100 -2 78 0 103 11 109 9 6 11 18 7 34 -5 23
-10 24 -63 22 -32 -1 -66 -5 -75 -9 -14 -6 -17 -1 -20 31 -3 34 -7 39 -38 49
-64 21 -121 24 -127 7z m272 -462 c3 -5 2 -12 -3 -15 -5 -3 -9 1 -9 9 0 17 3
19 12 6z m1 -157 c1 -9 0 -13 -4 -10 -3 4 -7 14 -8 22 -1 9 0 13 4 10 3 -4 7
-14 8 -22z"/>
<path d="M8658 3243 c-58 -30 -74 -66 -89 -200 -12 -112 -8 -137 31 -178 20
-20 34 -51 44 -94 19 -80 35 -99 71 -83 14 7 25 20 25 31 0 11 12 29 26 40 25
20 25 22 20 108 -3 48 -6 108 -6 133 -1 24 -10 75 -21 112 -20 65 -20 81 -4
136 7 19 4 22 -21 21 -16 -1 -50 -13 -76 -26z"/>
</g>
</svg>
